<?xml version="1.0" encoding="UTF-8" standalone="no"?>
<!-- Created with Inkscape (http://www.inkscape.org/) -->

<svg
   xmlns:dc="http://purl.org/dc/elements/1.1/"
   xmlns:cc="http://creativecommons.org/ns#"
   xmlns:rdf="http://www.w3.org/1999/02/22-rdf-syntax-ns#"
   xmlns:svg="http://www.w3.org/2000/svg"
   xmlns="http://www.w3.org/2000/svg"
   xmlns:sodipodi="http://sodipodi.sourceforge.net/DTD/sodipodi-0.dtd"
   xmlns:inkscape="http://www.inkscape.org/namespaces/inkscape"
   width="195.63654mm"
   height="174.35048mm"
   viewBox="0 0 195.63654 174.35048"
   version="1.1"
   id="svg898"
   inkscape:version="0.92.2 (5c3e80d, 2017-08-06)"
   sodipodi:docname="ados.svg">
  <defs
     id="defs892">
    <clipPath
       clipPathUnits="userSpaceOnUse"
       id="clipPath1509">
      <path
         style="fill:#a15428;fill-opacity:1;stroke:none;stroke-width:0.26458332px;stroke-linecap:butt;stroke-linejoin:miter;stroke-opacity:1"
         d="m 104.63602,86.844709 c 0,0 -1.40317,6.548101 -2.33861,7.149459 -0.93545,0.601359 -6.214015,3.407688 -6.214015,3.407688 0,0 4.543575,7.617184 7.416725,7.750824 2.87315,0.13363 9.35443,-0.20046 10.55715,-0.80181 1.20271,-0.60136 0.93544,-7.483554 0.86862,-8.619453 -0.0668,-1.13589 0.40091,-5.81311 0.40091,-5.81311 z"
         id="path1511"
         inkscape:connector-curvature="0" />
    </clipPath>
    <clipPath
       clipPathUnits="userSpaceOnUse"
       id="clipPath1584">
      <path
         style="opacity:0.65799997;fill:#bebebe;fill-opacity:1;stroke:none;stroke-width:0.26458332px;stroke-linecap:butt;stroke-linejoin:miter;stroke-opacity:1"
         d="m 148.24058,131.87165 c 0,0 -10.58333,9.26041 -9.07143,18.42634 1.51191,9.16593 5.48066,27.40328 7.55953,31.93899 2.07887,4.53572 10.20536,18.52083 10.20536,18.52083 l 6.42559,-4.91368 c 0,0 -5.48065,-27.40329 -5.48065,-29.29316 0,-1.88988 4.91369,-28.91519 4.91369,-28.91519 z"
         id="path1586"
         inkscape:connector-curvature="0" />
    </clipPath>
    <clipPath
       clipPathUnits="userSpaceOnUse"
       id="clipPath1615">
      <path
         style="fill:#bebebe;fill-opacity:1;stroke:none;stroke-width:0.26458332px;stroke-linecap:butt;stroke-linejoin:miter;stroke-opacity:1"
         d="m 187.08867,137.17282 c 0,0 2.93996,8.01809 0.80181,13.22984 -2.13816,5.21176 -9.88898,10.15624 -12.2944,12.56167 -2.40543,2.40543 -2.80633,10.02261 -4.40995,15.10073 -1.60362,5.07812 -10.28988,24.9897 -10.69078,26.05878 -0.40091,1.06908 -8.01808,-1.26954 -9.48807,-1.93771 -1.46998,-0.66817 1.06908,-4.74403 2.00452,-8.4858 0.93545,-3.74178 4.54359,-16.43708 4.67722,-19.51068 0.13363,-3.0736 1.20271,-9.48807 1.33635,-12.6953 0.13363,-3.20724 2.13815,-22.04974 3.60813,-23.78699 1.46999,-1.73725 22.45065,-4.27631 22.45065,-4.27631 z"
         id="path1617"
         inkscape:connector-curvature="0"
         sodipodi:nodetypes="cscscccscccc" />
    </clipPath>
    <clipPath
       clipPathUnits="userSpaceOnUse"
       id="clipPath1638">
      <path
         style="fill:#6b3f1c;fill-opacity:1;stroke:none;stroke-width:0.26458332px;stroke-linecap:butt;stroke-linejoin:miter;stroke-opacity:1"
         d="m 166.04119,68.885456 c 0,0 -2.07134,1.603616 -1.5368,2.138156 0.53454,0.534538 5.67948,3.875411 6.01357,4.944489 0.33408,1.069078 1.87088,5.412208 1.00226,7.349908 -0.86863,1.937705 -4.67722,2.806332 -6.28084,5.211757 -1.60361,2.405425 -2.53906,6.013566 -2.93996,7.684 -0.40091,1.670436 3.80859,-4.476763 5.34539,-5.746295 1.5368,-1.269529 -2.60588,4.075861 -3.74177,9.688519 -1.1359,5.61266 1.06907,-0.534536 4.54358,-4.276311 3.4745,-3.741772 7.81763,-4.81085 5.41221,-1.536798 -2.40543,3.274052 -6.41447,6.614919 -8.35218,8.218539 -1.9377,1.60361 7.01583,-1.5368 8.28536,-3.207235 1.26953,-1.670436 3.67495,-3.140419 6.5481,-2.004523 2.87315,1.135896 9.08717,-1.00226 11.35896,1.603618 2.27179,2.60588 5.14493,7.41673 5.61266,7.55036 0.46772,0.13364 -0.86863,-7.216273 -4.34313,-10.156238 -3.47451,-2.939966 -7.14946,-4.944486 -8.15172,-7.951269 -1.00227,-3.006781 0.13363,-3.663556 -0.40089,-8.084902 -0.53454,-2.739517 -1.13589,-4.944486 -1.26953,-5.946751 -0.13363,-1.002261 -1.87089,-8.018085 -4.00904,-8.686258 -2.13816,-0.668176 -6.57813,-1.513898 -11.49259,0.200451 -1.43657,0.501131 -4.39249,1.527064 -5.71792,4.309721 -1.32543,2.782657 0.71676,0.824463 1.44163,0.100227 0.80181,-0.801809 2.20497,-1.403165 2.67269,-1.403165 z"
         id="path1640"
         inkscape:connector-curvature="0"
         sodipodi:nodetypes="ccccccccccsssscccccsszccc" />
    </clipPath>
  </defs>
  <sodipodi:namedview
     id="base"
     pagecolor="#ffffff"
     bordercolor="#666666"
     borderopacity="1.0"
     inkscape:pageopacity="0.0"
     inkscape:pageshadow="2"
     inkscape:zoom="0.49497475"
     inkscape:cx="-414.38513"
     inkscape:cy="281.84899"
     inkscape:document-units="mm"
     inkscape:current-layer="layer1"
     showgrid="false"
     inkscape:snap-nodes="false"
     showguides="false"
     inkscape:window-width="1920"
     inkscape:window-height="1001"
     inkscape:window-x="-9"
     inkscape:window-y="-9"
     inkscape:window-maximized="1" />
  <metadata
     id="metadata895">
    <rdf:RDF>
      <cc:Work
         rdf:about="">
        <dc:format>image/svg+xml</dc:format>
        <dc:type
           rdf:resource="http://purl.org/dc/dcmitype/StillImage" />
        <dc:title />
      </cc:Work>
    </rdf:RDF>
  </metadata>
  <g
     inkscape:label="Calque 1"
     inkscape:groupmode="layer"
     id="layer1"
     transform="translate(-6.4255943,-45.645833)">
    <path
       style="opacity:1;vector-effect:none;fill:#f4f4f4;fill-opacity:1;stroke:none;stroke-width:1.16499996;stroke-linecap:round;stroke-linejoin:bevel;stroke-miterlimit:2.29999995;stroke-dasharray:27.95999964, 27.95999964;stroke-dashoffset:0;stroke-opacity:1;paint-order:markers stroke fill"
       id="path1747"
       sodipodi:type="arc"
       sodipodi:cx="191.82292"
       sodipodi:cy="94.971718"
       sodipodi:rx="8.1264877"
       sodipodi:ry="8.1264877"
       sodipodi:start="0.32175145"
       sodipodi:end="0.14707837"
       sodipodi:open="true"
       d="m 199.53238,97.541546 a 8.1264877,8.1264877 0 0 1 -9.94028,5.244464 8.1264877,8.1264877 0 0 1 -5.67341,-9.701863 8.1264877,8.1264877 0 0 1 9.44495,-6.091526 8.1264877,8.1264877 0 0 1 6.49803,9.170023"
       inkscape:export-xdpi="90"
       inkscape:export-ydpi="90" />
    <rect
       style="opacity:1;vector-effect:none;fill:#f4f4f4;fill-opacity:1;stroke:none;stroke-width:1.16499996;stroke-linecap:round;stroke-linejoin:bevel;stroke-miterlimit:2.29999995;stroke-dasharray:27.95999964, 27.95999964;stroke-dashoffset:0;stroke-opacity:1;paint-order:markers stroke fill"
       id="rect1739"
       width="192.0119"
       height="61.988094"
       x="6.4255943"
       y="124.26488"
       ry="8.1517067"
       rx="8.1517067"
       inkscape:export-xdpi="90"
       inkscape:export-ydpi="90" />
    <g
       id="g1723"
       transform="translate(22.230577,-31.738873)"
       inkscape:export-xdpi="90"
       inkscape:export-ydpi="90">
      <g
         id="g1737">
        <path
           style="fill:#f4f4f4;fill-opacity:1;stroke:none;stroke-width:0.34707049px;stroke-linecap:butt;stroke-linejoin:miter;stroke-opacity:1"
           d="m 23.925379,238.37394 c 0,0 -8.33694,0.76667 -6.573356,5.55834 1.763584,4.79166 3.206516,6.89998 7.535312,4.40832 4.328795,-2.49165 11.864103,-8.24166 11.864103,-8.24166 z"
           id="path1743"
           inkscape:connector-curvature="0" />
        <path
           style="opacity:1;fill:#ffb9ac;fill-opacity:1;stroke:none;stroke-width:0.26458332px;stroke-linecap:butt;stroke-linejoin:miter;stroke-opacity:1"
           d="m 53.389135,181.62277 6.52009,2.92931 c 0,0 1.511906,-1.88988 1.13393,-2.64583 -0.377978,-0.75596 -1.700895,-1.13393 -1.795388,-1.79539 -0.09449,-0.66146 -0.09449,-1.32292 -0.09449,-1.32292 l 3.401785,-1.13392 c 0,0 1.984375,-1.98438 3.118305,-2.17337 1.133928,-0.18899 4.157737,1.41741 5.291667,3.2128 1.133927,1.79539 2.456844,-1.51191 3.118302,-0.85045 0.661459,0.66146 1.889882,1.51191 0.661459,2.74033 -1.228424,1.22842 -1.606399,1.79539 -2.55134,2.64583 -0.944941,0.85045 -2.078869,0.56697 -2.173362,1.79539 -0.0945,1.22842 0.566963,2.36235 -0.188989,3.77976 -0.755952,1.41741 -4.819195,5.95313 -4.819195,5.95313 L 48.097468,187.3869 Z"
           id="path1480"
           inkscape:connector-curvature="0" />
        <path
           style="opacity:0.82999998;fill:#ffb1a3;fill-opacity:1;stroke:none;stroke-width:0.26458332px;stroke-linecap:butt;stroke-linejoin:miter;stroke-opacity:1"
           d="m 9.8889729,162.36297 c 0,0 0.6013561,2.27179 0.2672691,3.40769 -0.3340871,1.13589 -1.6036171,4.67722 -1.6036171,4.67722 0,0 5.7462951,7.28309 6.5481031,7.55036 0.801809,0.26727 8.68626,0.0668 9.287616,-0.33409 0.601357,-0.4009 2.338609,-5.54584 1.737252,-6.08038 -0.601356,-0.53454 -1.937704,-3.27405 -1.937704,-3.27405 l -7.817633,-5.54584 -5.078122,-2.13816 z"
           id="path1458"
           inkscape:connector-curvature="0" />
        <path
           style="fill:#ffa999;fill-opacity:1;stroke:none;stroke-width:0.26458332px;stroke-linecap:butt;stroke-linejoin:miter;stroke-opacity:1"
           d="m 12.628485,156.75031 c 0,0 -1.937704,-1.00226 -2.8731473,-0.20045 -0.9354434,0.80181 -1.0690781,2.80633 -0.8018087,3.34087 0.2672696,0.53454 1.804069,4.54358 2.873147,4.54358 1.069078,0 2.338609,-0.26727 2.405426,-1.26953 0.06682,-1.00226 -1.603617,-6.41447 -1.603617,-6.41447 z"
           id="path1456"
           inkscape:connector-curvature="0"
           sodipodi:nodetypes="cssscc" />
        <path
           style="opacity:1;fill:#ffffff;fill-opacity:1;stroke:none;stroke-width:0.26458332px;stroke-linecap:butt;stroke-linejoin:miter;stroke-opacity:1"
           d="m 9.8889724,166.03793 c 0,0 -1.1358954,0.4009 -0.6681738,1.73725 0.4677217,1.33635 5.6126604,10.62396 11.3589544,9.42125 5.746295,-1.20271 4.075861,-7.21627 4.075861,-7.21627 0,0 2.138155,-2.47225 4.409947,-1.73726 2.271792,0.735 14.098468,4.40995 17.372518,6.88219 3.274052,2.47224 7.684,6.34766 7.684,6.34766 0,0 -2.539061,1.33634 -3.407686,3.14041 -0.868627,1.80407 -3.073601,4.67722 -3.340869,5.67948 -0.267269,1.00226 -8.352174,-2.07134 -8.352174,-2.07134 0,0 -1.870887,9.95579 -1.5368,14.29892 0.334089,4.34313 1.202713,12.56167 2.939965,14.2321 1.737251,1.67044 -5.679477,2.00452 -7.14946,1.80407 -1.469982,-0.20045 -26.2592301,-3.80859 -26.2592301,-3.80859 0,0 0.486716,3.35986 -0.3150924,4.82985 -0.8018087,1.46998 -5.76528917,10.3377 -6.09937608,11.47359 -0.33408691,1.1359 -0.40090428,-16.70434 -0.93544333,-19.9784 -0.53453905,-3.27405 -4.20949489,-18.57523 -4.87766889,-21.98292 -0.6681737,-3.40768 -0.9354434,-11.1585 1.3363477,-13.56392 2.2717909,-2.40543 10.356694,-6.88219 11.0916853,-7.48355 0.7349911,-0.60136 2.6726952,-2.00452 2.6726952,-2.00452 z"
           id="path1470"
           inkscape:connector-curvature="0"
           sodipodi:nodetypes="cssccscsscscscccsscsc" />
        <path
           style="opacity:1;fill:#ffb9ac;fill-opacity:1;stroke:none;stroke-width:0.26458332px;stroke-linecap:butt;stroke-linejoin:miter;stroke-opacity:1"
           d="m 12.628485,156.75031 c 0,0 0.868626,7.21628 1.469982,8.08491 0.601357,0.86862 3.541322,4.00904 4.944487,4.40994 1.403165,0.40091 6.013564,1.5368 7.14946,1.06908 1.135895,-0.46772 2.204973,-1.46998 2.138156,-2.07134 -0.06682,-0.60135 -0.334087,-2.60587 0.267268,-4.54358 0.601359,-1.9377 1.737252,-3.74177 1.603619,-4.74403 -0.133636,-1.00226 -1.135896,-2.53906 -1.202714,-3.0736 -0.06682,-0.53454 0.334087,-1.67044 0.200454,-2.07134 -0.133636,-0.40091 -0.734992,-2.13816 -1.135896,-3.14042 -0.400905,-1.00226 -0.935445,-4.6104 -4.944487,-5.94675 -4.009043,-1.33634 -7.884451,-1.00226 -8.886712,1.26954 -1.002261,2.27179 -2.53906,3.27405 -2.338608,5.27857 0.200452,2.00452 0.734991,5.47902 0.734991,5.47902 z"
           id="path1454"
           inkscape:connector-curvature="0" />
        <path
           sodipodi:nodetypes="ccscczssczzscccccssc"
           style="fill:#ff931d;fill-opacity:1;stroke:none;stroke-width:0.26458332px;stroke-linecap:butt;stroke-linejoin:miter;stroke-opacity:1"
           d="m 15.434815,158.95529 c 0,0.66817 0.534539,3.20723 0.400904,3.74177 -0.133634,0.53454 -2.53906,-1.20272 -2.672695,-1.87089 -0.133635,-0.66817 -1.26953,-3.8754 -1.670435,-3.34086 -0.400904,0.53453 -0.868625,4.74403 -0.601356,5.54584 0.26727,0.80181 0.228576,1.84234 -1.8040691,1.40316 -2.032645,-0.43918 -4.4767647,-7.08264 -4.7440341,-9.02035 -0.2672696,-1.9377 0.066817,-9.22079 3.8754081,-11.35895 3.8085911,-2.13816 11.2253201,-3.20723 14.0316501,-1.9377 1.796252,0.93243 5.181696,2.552 5.813111,4.74403 0.631415,2.19202 0.850514,3.91069 0.719475,4.10724 -0.13104,0.19656 -0.719473,-1.36773 -1.521282,-0.4991 -0.80181,0.86863 -2.138157,3.34087 -2.672696,3.67496 -0.534539,0.33408 1.135896,-5.41221 1.135896,-5.41221 0,0 -2.071339,4.34313 -2.405426,4.40995 -0.334087,0.0668 0.734991,-4.40995 0.734991,-4.40995 0,0 -2.53906,1.20271 -3.006782,2.13815 -0.467722,0.93545 -0.734991,4.27632 -1.937704,4.94449 -1.202713,0.66817 -3.207234,2.13816 -3.407686,2.53906 -0.200452,0.4009 -0.26727,0.60136 -0.26727,0.60136 z"
           id="path1460"
           inkscape:connector-curvature="0" />
        <path
           style="opacity:1;fill:#222222;fill-opacity:1;stroke:none;stroke-width:0.26458332px;stroke-linecap:butt;stroke-linejoin:miter;stroke-opacity:1"
           d="m 39.555889,216.81914 c 4.825338,0.0504 6.280835,0.73499 19.243407,1.67044 12.96257,0.93544 18.612343,3.9416 18.708866,10.89123 0.133636,9.62169 -20.17885,12.6953 -29.666916,14.16528 -9.48807,1.46998 -9.087164,-8.68626 -9.087164,-8.68626 -4.597991,-4.9532 -5.942735,-8.41715 -9.087165,-13.22984 l 0.400904,-6.1472 c 0,0 4.662731,1.28594 9.488068,1.33635 z"
           id="path1474"
           inkscape:connector-curvature="0"
           sodipodi:nodetypes="zssscccz" />
        <path
           style="fill:#1a1a1a;fill-opacity:1;stroke:none;stroke-width:0.26458332px;stroke-linecap:butt;stroke-linejoin:miter;stroke-opacity:1"
           d="m 39.309524,235.95684 c 0,0 14.552083,-7.37053 15.780506,-8.31547 1.228421,-0.94494 -22.773066,-0.18899 -22.773066,-0.18899 l -13.985119,2.45684 c 0,0 -7.181544,8.22099 -8.5989586,10.01637 3.3072926,2.17336 5.4806546,0.94494 12.1897326,1.03944 6.709077,0.0945 17.386905,-5.00819 17.386905,-5.00819 z"
           id="path1476"
           inkscape:connector-curvature="0"
           sodipodi:nodetypes="cscccsc" />
        <path
           style="opacity:1;fill:#ffeec4;fill-opacity:1;stroke:none;stroke-width:0.26458332px;stroke-linecap:butt;stroke-linejoin:miter;stroke-opacity:1"
           d="m 30.468726,193.36624 c 0,0 4.075861,-4.00904 9.955789,-5.14494 5.87993,-1.1359 9.020347,-1.9377 9.621702,-0.53454 0.601359,1.40316 13.430295,-6.48129 13.430295,-6.48129 0,0 -0.133636,0.86863 -0.467722,1.67044 -0.334087,0.80181 -0.734992,1.20271 0.133635,1.26953 0.868625,0.0668 2.271792,-1.06908 2.271792,-1.06908 v 1.73725 l 1.46998,-0.8018 c 0,0 0.400905,1.53679 -0.06682,2.20497 -0.467722,0.66817 1.536798,0.66817 1.536798,0.66817 l 2.605878,3.27405 -9.621702,0.93545 -5.612659,2.3386 -4.409948,1.00227 -2.873147,-3.0736 -6.614922,0.4009 -7.750816,2.47224 z"
           id="path1484"
           inkscape:connector-curvature="0" />
        <path
           style="fill:#ffb600;fill-opacity:1;stroke:none;stroke-width:0.26458332px;stroke-linecap:butt;stroke-linejoin:miter;stroke-opacity:1"
           d="m 29.466466,193.29942 c 0,0 18.708867,-3.80859 20.045214,-3.60814 1.336347,0.20045 3.741771,3.34087 4.209494,3.27405 0.467722,-0.0668 5.211757,-2.73951 7.884451,-2.93996 2.672696,-0.20045 9.68852,0.20045 9.68852,0.20045 0,0 -5.679477,8.61944 -6.013563,8.95353 -0.334087,0.33409 -34.010047,0.4009 -34.010047,0.4009 0,0 -1.937705,-5.47902 -1.804069,-6.28083 z"
           id="path1482"
           inkscape:connector-curvature="0" />
        <path
           style="fill:#ffb9ac;fill-opacity:1;stroke:none;stroke-width:0.26458332px;stroke-linecap:butt;stroke-linejoin:miter;stroke-opacity:1"
           d="m 0.56696429,195.98586 c 0,0 5.48065471,5.10268 6.80357141,6.14211 1.3229166,1.03944 4.7247023,4.34673 5.6696423,4.63021 0.944941,0.28348 13.890624,1.13393 16.914436,-0.28348 3.023809,-1.41741 8.598958,-3.87426 11.622767,-4.44122 3.023809,-0.56696 4.535713,-1.22842 6.614584,-0.94494 2.078869,0.28348 2.645831,1.22842 5.953123,-1.03944 3.307291,-2.26786 4.724703,-3.68526 6.236609,-4.34672 1.511903,-0.66146 2.929313,-2.17336 1.41741,-2.17336 -1.511906,0 -1.039434,-0.66146 -1.606399,-1.13393 -0.566965,-0.47247 -4.346726,1.79538 -6.236608,2.55134 -1.889882,0.75595 -2.929316,0.94494 -3.590774,0.94494 -0.661458,0 -3.023809,-1.79539 -3.023809,-1.79539 0,0 1.039434,-1.6064 0.188989,-2.26786 -0.850447,-0.66146 -1.795388,0.0945 -2.267857,0.56697 -0.472472,0.47247 -3.023809,2.17336 -3.023809,2.17336 0,0 -0.472472,1.03943 -1.039435,1.41741 -0.566965,0.37798 -6.331103,1.51191 -8.409971,1.79539 -2.078869,0.28348 -12.095238,-0.56697 -13.418154,-0.56697 -1.322917,0 -2.456846,-0.47247 -2.834822,-1.03943 -0.377976,-0.56697 -1.889881,-5.66965 -1.889881,-5.66965 0,0 -3.874256,-0.85044 -7.3705354,0.85045 -3.4962798,1.70089 -6.70907731,4.63021 -6.70907731,4.63021 z"
           id="path1478"
           inkscape:connector-curvature="0"
           sodipodi:nodetypes="ccsssssssscscccccssccsc" />
        <path
           style="fill:#f4f4f4;fill-opacity:1;stroke:none;stroke-width:0.25561157px;stroke-linecap:butt;stroke-linejoin:miter;stroke-opacity:1"
           d="m 27.320408,244.49019 c 0,0 -0.38605,1.54022 -0.420601,3.18919 -0.03455,1.64896 -1.646642,3.33147 4.380516,3.67879 6.027157,0.34732 19.864809,0.83501 20.045065,-0.53178 0.180258,-1.3668 -0.453335,-6.82631 -2.708036,-7.76099 -2.254698,-0.93466 -5.281502,1.21111 -8.230488,-0.83933 -2.948983,-2.05042 -9.662319,-0.52361 -9.662319,-0.52361 z"
           id="path1741"
           inkscape:connector-curvature="0" />
        <path
           sodipodi:nodetypes="cszsscccscsc"
           style="fill:#222222;fill-opacity:1;stroke:none;stroke-width:0.26458332px;stroke-linecap:butt;stroke-linejoin:miter;stroke-opacity:1"
           d="m 0.53453905,231.6526 c 0.40090428,-1.46998 4.81085145,-16.43708 10.55714595,-22.71791 5.746295,-6.28083 8.753077,-11.22532 12.22758,-11.29214 3.474504,-0.0668 5.813114,-1.67043 9.020348,12.09395 3.207234,13.76438 4.677217,20.04521 6.414468,23.11881 1.737252,3.0736 4.81085,6.5481 5.879931,8.15172 1.069078,1.60362 -3.073601,3.4745 -4.677217,3.60814 -1.603618,0.13363 -13.363477,0.26727 -13.363477,0.26727 0,0 -4.409948,-13.36348 -4.677217,-14.56619 -0.26727,-1.20271 -0.534539,4.67722 -1.870887,5.74629 -1.336347,1.06908 -4.944486,5.3454 -10.1562416,4.27632 -5.2117556,-1.06908 -9.48806812,-4.94449 -9.35443335,-8.68626 z"
           id="path1472"
           inkscape:connector-curvature="0" />
      </g>
    </g>
    <path
       style="opacity:1;vector-effect:none;fill:#ffb600;fill-opacity:1;stroke:none;stroke-width:1.16499996;stroke-linecap:round;stroke-linejoin:bevel;stroke-miterlimit:2.29999995;stroke-dasharray:27.95999964, 27.95999964;stroke-dashoffset:0;stroke-opacity:1;paint-order:markers stroke fill"
       id="path1751"
       sodipodi:type="arc"
       sodipodi:cx="136.82739"
       sodipodi:cy="173.40178"
       sodipodi:rx="12.095239"
       sodipodi:ry="12.095239"
       sodipodi:start="0.32175145"
       sodipodi:end="0.14707837"
       sodipodi:open="true"
       d="m 148.30194,177.22664 a 12.095239,12.095239 0 0 1 -14.79485,7.80572 12.095239,12.095239 0 0 1 -8.44414,-14.43999 12.095239,12.095239 0 0 1 14.0576,-9.06646 12.095239,12.095239 0 0 1 9.67149,13.64841"
       inkscape:export-xdpi="90"
       inkscape:export-ydpi="90" />
    <path
       style="fill:none;stroke:#000000;stroke-width:1.08108413;stroke-linecap:butt;stroke-linejoin:miter;stroke-miterlimit:4;stroke-dasharray:1.08108408, 6.48650445;stroke-dashoffset:0;stroke-opacity:1"
       d="M 78.626683,46.869544 190.24646,205.02546"
       id="path1757"
       inkscape:connector-curvature="0"
       inkscape:export-xdpi="90"
       inkscape:export-ydpi="90" />
    <g
       id="g1688"
       transform="translate(-5.2916671,-16.630952)"
       inkscape:export-xdpi="90"
       inkscape:export-ydpi="90">
      <path
         inkscape:connector-curvature="0"
         id="path1545"
         d="m 164.17031,89.707374 -2.40543,8.18953 3.27405,8.914266 9.75534,1.23206 5.54584,-5.94285 -3.20723,-10.943532 -7.48355,-3.696159 z"
         style="opacity:1;fill:#ffbb85;fill-opacity:1;stroke:none;stroke-width:0.27555481px;stroke-linecap:butt;stroke-linejoin:miter;stroke-opacity:1" />
      <g
         id="g1661">
        <path
           style="opacity:1;fill:#000856;fill-opacity:1;stroke:none;stroke-width:0.26458332px;stroke-linecap:butt;stroke-linejoin:miter;stroke-opacity:1"
           d="m 163.96244,90.801559 c 0,0 0.47513,6.080382 0.94286,8.285353 0.46772,2.204978 1.80407,7.683998 2.67269,7.617178 0.86863,-0.0668 7.2831,-6.68173 8.28536,-8.819889 1.00226,-2.138156 2.47224,-9.955789 2.93996,-10.356694 0.46772,-0.400904 6.1472,1.135896 6.28084,3.073599 0.13363,1.937705 -0.26727,8.953529 -0.735,11.960314 -0.46772,3.00678 -4.34313,21.84928 -5.21175,23.58653 -0.86863,1.73725 -2.33861,7.55037 -5.7463,8.75308 -3.40768,1.20271 -15.90253,0.60136 -18.70886,-1.80407 -2.80633,-2.40543 -5.41221,-1.73725 -5.67948,-10.82441 -0.26727,-9.08717 0.93544,-23.853811 4.2095,-27.061045 3.27405,-3.207235 8.88671,-5.412209 9.15398,-5.412209 0.26726,0 1.5962,1.002263 1.5962,1.002263 z"
           id="path1547"
           inkscape:connector-curvature="0"
           sodipodi:nodetypes="cccsccccssscsc" />
        <path
           style="fill:#000749;fill-opacity:1;stroke:none;stroke-width:0.26458332px;stroke-linecap:butt;stroke-linejoin:miter;stroke-opacity:1"
           d="m 156.00967,118.02827 c 1.32292,0.47247 9.07143,1.22842 10.67783,-0.47247 1.6064,-1.70089 4.25223,3.68527 8.40997,3.1183 4.15774,-0.56696 5.48065,-0.56696 -0.85045,1.6064 -6.3311,2.17337 -4.7247,-3.68526 -6.89806,-2.26785 -2.17337,1.41741 -9.26042,-0.37798 -11.33929,-1.98438 z"
           id="path1559"
           inkscape:connector-curvature="0" />
      </g>
      <path
         sodipodi:nodetypes="cccscc"
         inkscape:connector-curvature="0"
         id="path1619"
         d="m 161.56443,86.191158 c 0,0 -1.80407,3.608138 -2.20497,4.810852 -0.40091,1.202714 0.26726,1.069078 0.8018,0.467723 0.53454,-0.601358 0.37748,0.236414 0.73499,1.00226 0.93599,2.005074 2.28672,-2.800188 2.01149,-3.075416 z"
         style="fill:#6b3f1c;fill-opacity:1;stroke:none;stroke-width:0.26458332px;stroke-linecap:butt;stroke-linejoin:miter;stroke-opacity:1" />
      <path
         inkscape:connector-curvature="0"
         id="path1541"
         d="m 161.56443,71.558152 c 0,0 -1.06908,3.474505 -1.40317,4.34313 -0.33409,0.868627 0.40091,1.737251 0.33409,2.605878 -0.0668,0.868625 -1.60362,4.34313 -1.33635,4.81085 0.26727,0.467723 1.60362,0.133636 1.67044,0.668176 0.0668,0.534538 0.53454,2.071339 0.60135,3.006781 0.0668,0.935445 -0.26727,2.204974 0.40091,2.806329 0.66817,0.601359 0.8018,1.135896 1.73725,1.135896 0.93544,0 7.684,-1.269529 10.08942,-3.407685 2.40543,-2.138156 5.01131,-9.822156 5.01131,-12.962572 0,-3.140416 0.0668,-6.414468 -3.54132,-7.283095 -3.60814,-0.868625 -6.61492,-1.269529 -8.35218,-0.200451 -1.73725,1.069078 -5.21175,4.476763 -5.21175,4.476763 z"
         style="opacity:1;fill:#ffbb85;fill-opacity:1;stroke:none;stroke-width:0.26458332px;stroke-linecap:butt;stroke-linejoin:miter;stroke-opacity:1" />
      <path
         inkscape:connector-curvature="0"
         id="path1594"
         d="m 163.19122,196.60007 c 0.75595,0.70871 4.11049,6.66183 4.81919,7.70127 0.70871,1.03943 2.12612,1.46466 1.46466,2.22061 -0.66145,0.75595 -1.79538,1.41741 -1.79538,2.12611 0,0.70871 0.7087,0.56697 -1.65365,1.65365 -2.36235,1.08668 -7.74851,3.54353 -8.45722,3.59077 -0.7087,0.0472 -1.37016,-2.92931 -1.37016,-2.92931 l 3.30729,-9.02418 1.55915,-4.67746 z"
         style="fill:#000000;fill-opacity:1;stroke:none;stroke-width:0.26458332px;stroke-linecap:butt;stroke-linejoin:miter;stroke-opacity:1" />
      <g
         id="g1650">
        <path
           style="fill:#ffb600;fill-opacity:1;stroke:none;stroke-width:0.26458332px;stroke-linecap:butt;stroke-linejoin:miter;stroke-opacity:1"
           d="m 152.14318,201.71841 -1.46999,2.53906 1.73726,3.80859 5.74629,-1.20271 1.5368,-4.81085 z"
           id="path1592"
           inkscape:connector-curvature="0" />
        <path
           style="fill:#000000;fill-opacity:1;stroke:none;stroke-width:0.26458332px;stroke-linecap:butt;stroke-linejoin:miter;stroke-opacity:1"
           d="m 151.00728,203.12157 c -0.53454,0.46773 -6.1472,2.53907 -6.08038,3.8086 0.0668,1.26953 0.80181,4.27631 0.53454,5.81311 -0.26727,1.5368 -2.07134,1.87088 -1.60362,4.00904 0.46772,2.13816 1.06908,3.94223 3.94223,5.61266 2.87314,1.67044 3.87541,2.60588 5.0113,1.60362 1.1359,-1.00226 2.47224,-5.87993 2.53906,-7.2831 0.0668,-1.40316 0.93544,-6.01356 2.20498,-7.28309 1.26952,-1.26953 2.3386,-2.60588 1.53679,-3.14042 -0.8018,-0.53454 -3.4745,-2.33861 -4.27631,-2.27179 -0.80181,0.0668 -1.80407,0.40091 -2.00452,1.1359 -0.20045,0.73499 -2.20497,0.0668 -1.80407,-2.00453 z"
           id="path1590"
           inkscape:connector-curvature="0" />
      </g>
      <g
         id="g1646">
        <path
           style="opacity:1;fill:#bebebe;fill-opacity:1;stroke:none;stroke-width:0.26458332px;stroke-linecap:butt;stroke-linejoin:miter;stroke-opacity:1"
           d="m 148.35565,131.9189 c 0,0 -10.58333,9.26041 -9.07143,18.42634 1.51191,9.16592 5.48066,27.40327 7.55953,31.93898 2.07887,4.53572 10.20536,18.52084 10.20536,18.52084 l 6.42559,-4.91369 c 0,0 -5.48065,-27.40328 -5.48065,-29.29316 0,-1.88988 4.91369,-28.91518 4.91369,-28.91518 z"
           id="path1565"
           inkscape:connector-curvature="0" />
        <path
           style="fill:#b0b0b0;fill-opacity:1;stroke:none;stroke-width:0.26458332px;stroke-linecap:butt;stroke-linejoin:miter;stroke-opacity:1"
           d="m 149.2061,187.67038 c 0.94494,-1.41741 2.74033,-5.95312 4.7247,-13.22916 1.98438,-7.27604 2.26786,-13.70164 3.96875,-19.37128 1.7009,-5.66964 3.68527,-12.00075 3.68527,-12.00075 0,0 -0.37798,6.14212 -1.22842,12.00075 -0.85045,5.85863 -1.79539,17.3869 -2.55134,23.43452 -0.75595,6.04762 -4.06325,15.40253 -5.29167,16.72545 -1.22842,1.32292 -3.30729,-7.55953 -3.30729,-7.55953 z"
           id="path1567"
           inkscape:connector-curvature="0"
           clip-path="url(#clipPath1584)" />
        <path
           style="fill:#bebebe;fill-opacity:1;stroke:none;stroke-width:0.26458332px;stroke-linecap:butt;stroke-linejoin:miter;stroke-opacity:1"
           d="m 187.08867,137.17282 c 0,0 2.93996,8.01809 0.80181,13.22984 -2.13816,5.21176 -9.88898,10.15624 -12.2944,12.56167 -2.40543,2.40543 -2.80633,10.02261 -4.40995,15.10073 -1.60362,5.07812 -10.28988,24.9897 -10.69078,26.05878 -0.40091,1.06908 -8.01808,-1.26954 -9.48807,-1.93771 -1.46998,-0.66817 1.06908,-4.74403 2.00452,-8.4858 0.93545,-3.74178 4.54359,-16.43708 4.67722,-19.51068 0.13363,-3.0736 1.20271,-9.48807 1.33635,-12.6953 0.13363,-3.20724 2.13815,-22.04974 3.60813,-23.78699 1.46999,-1.73725 22.45065,-4.27631 22.45065,-4.27631 z"
           id="path1588"
           inkscape:connector-curvature="0"
           sodipodi:nodetypes="cscscccscccc" />
        <path
           style="fill:#b0b0b0;fill-opacity:1;stroke:none;stroke-width:0.26458332px;stroke-linecap:butt;stroke-linejoin:miter;stroke-opacity:1"
           d="m 184.45238,141.84077 c 0,0 -1.51191,7.55953 -3.96875,11.71726 -1.22842,2.07887 -4.016,4.96094 -7.29967,10.93769 -3.28367,5.97675 -11.22116,33.19104 -8.19735,36.8763 -0.37798,1.70089 22.30059,-38.93154 22.30059,-38.93154 l 3.40179,-19.65477 z"
           id="path1598"
           inkscape:connector-curvature="0"
           clip-path="url(#clipPath1615)"
           sodipodi:nodetypes="csscccc" />
      </g>
      <path
         inkscape:connector-curvature="0"
         id="path1563"
         d="m 159.50595,131.63541 c 0,0 9.82738,2.74033 11.81176,4.15774 1.98437,1.41741 5.85863,3.96875 5.38616,4.7247 -0.47247,0.75596 -4.8192,3.02381 -7.18155,3.02381 -2.36235,0 -5.29167,-1.79538 -6.61458,-3.02381 -1.32292,-1.22842 -6.99256,-4.06324 -7.46503,-4.53571 -0.47247,-0.47247 -1.32292,-2.74033 -1.32292,-2.74033 z"
         style="fill:#ffad6c;fill-opacity:1;stroke:none;stroke-width:0.26458332px;stroke-linecap:butt;stroke-linejoin:miter;stroke-opacity:1" />
      <path
         sodipodi:nodetypes="ccccccccccsssscccccsszccc"
         inkscape:connector-curvature="0"
         id="path1543"
         d="m 166.04119,68.885458 c 0,0 -2.07134,1.603616 -1.5368,2.138156 0.53454,0.534538 5.67948,3.875408 6.01357,4.944486 0.33408,1.069078 1.87088,5.412208 1.00226,7.34991 -0.86863,1.937705 -4.67722,2.806332 -6.28084,5.211757 -1.60361,2.405425 -2.53906,6.013564 -2.93996,7.683998 -0.40091,1.670436 3.80859,-4.476763 5.34539,-5.746295 1.5368,-1.269529 -2.60588,4.075861 -3.74177,9.68852 -1.1359,5.61266 1.06907,-0.534537 4.54358,-4.276312 3.4745,-3.741772 7.81763,-4.81085 5.41221,-1.536798 -2.40543,3.274052 -6.41447,6.61492 -8.35218,8.21854 -1.9377,1.60361 7.01583,-1.5368 8.28536,-3.207236 1.26953,-1.670437 3.67495,-3.140419 6.5481,-2.004523 2.87315,1.135896 9.08717,-1.002261 11.35896,1.603618 2.27179,2.605881 5.14493,7.416731 5.61266,7.550361 0.46772,0.13364 -0.86863,-7.216274 -4.34313,-10.15624 -3.47451,-2.939965 -7.14946,-4.944485 -8.15172,-7.951268 -1.00227,-3.006781 0.13363,-3.663556 -0.40089,-8.084902 -0.53454,-2.739515 -1.13589,-4.944486 -1.26953,-5.946749 -0.13363,-1.00226 -1.87089,-8.018084 -4.00904,-8.686257 -2.13816,-0.668176 -6.57813,-1.513898 -11.49259,0.200451 -1.43657,0.50113 -4.39249,1.527064 -5.71792,4.309721 -1.32543,2.782657 0.71676,0.824462 1.44163,0.100227 0.80181,-0.801809 2.20497,-1.403165 2.67269,-1.403165 z"
         style="fill:#6b3f1c;fill-opacity:1;stroke:none;stroke-width:0.26458332px;stroke-linecap:butt;stroke-linejoin:miter;stroke-opacity:1" />
      <g
         id="g1657">
        <path
           style="opacity:1;fill:#ffb600;fill-opacity:1;stroke:none;stroke-width:0.26458332px;stroke-linecap:butt;stroke-linejoin:miter;stroke-opacity:1"
           d="m 162.90774,89.396577 c 0,0 -7.46503,14.646573 -7.9375,15.875003 -0.47247,1.22842 -2.94078,4.71601 -2.68497,7.4421 0.2558,2.72608 1.26755,5.40909 1.26755,6.63751 0,1.22842 -0.3159,6.11165 -0.3159,6.11165 0,0 6.93049,5.98359 7.21397,6.45606 0.28348,0.47247 -2.83482,0.37797 -3.59077,1.22842 -0.75596,0.85045 -1.79539,3.49628 -1.79539,3.49628 0,0 -9.63839,-5.19717 -12.09524,-10.29985 -2.45684,-5.10268 -0.85044,-12.09524 0.28348,-16.63095 1.13393,-4.53572 3.68134,-13.488572 5.4348,-16.193692 1.75346,-2.70512 4.2036,-5.72893 7.03842,-5.91792 2.83482,-0.188986 5.85863,-0.09449 6.3311,0.0945 0.47247,0.188987 0.85045,1.700893 0.85045,1.700893 z"
           id="path1549"
           inkscape:connector-curvature="0"
           sodipodi:nodetypes="cczscscccczcccc" />
        <path
           style="fill:#ffb600;fill-opacity:1;stroke:none;stroke-width:0.26458332px;stroke-linecap:butt;stroke-linejoin:miter;stroke-opacity:1"
           d="m 187.66518,131.9189 c 0,0 0.66146,3.30729 0.85044,5.29166 0.18899,1.98438 1.22843,5.57515 1.41741,6.3311 0.18899,0.75596 -4.63021,-0.66145 -6.2366,-1.32291 -1.6064,-0.66146 -5.10268,-6.89807 -5.10268,-7.55952 0,-0.66146 9.07143,-2.74033 9.07143,-2.74033 z"
           id="path1557"
           inkscape:connector-curvature="0" />
        <path
           style="opacity:1;fill:#ffb600;fill-opacity:1;stroke:none;stroke-width:0.26458332px;stroke-linecap:butt;stroke-linejoin:miter;stroke-opacity:1"
           d="m 182.18452,95.822171 c 0,0 0.56697,10.205359 -1.32291,17.859379 -1.88989,7.65401 -3.2128,12.94568 -5.66965,14.36309 -2.45684,1.41741 -10.77232,3.49628 -11.62276,3.77976 -0.85045,0.28349 1.70089,2.36235 2.26785,4.44122 0.56697,2.07887 -0.56696,4.72471 0.66146,3.77977 1.22842,-0.94495 13.13467,-3.40179 15.11905,-3.96875 1.98437,-0.56697 7.08705,-2.26786 8.22098,-4.53572 1.13393,-2.26786 3.49628,-11.62277 4.25223,-16.15848 0.75595,-4.53571 1.03944,-13.89063 0.37798,-15.875002 -0.66146,-1.984375 -0.56697,-5.19717 -3.96875,-6.614583 -3.40179,-1.41741 -6.89807,-2.551337 -6.89807,-2.551337 z"
           id="path1553"
           inkscape:connector-curvature="0" />
        <path
           style="fill:#dc9d00;fill-opacity:1;stroke:none;stroke-width:0.26458332px;stroke-linecap:butt;stroke-linejoin:miter;stroke-opacity:1"
           d="m 152.4189,101.30283 c 0,0 -3.59078,15.30803 -2.92932,17.76488 0.66146,2.45684 3.87426,6.70907 3.87426,6.70907 0,0 -3.11831,-5.66964 -2.74033,-10.11086 0.37798,-4.44122 1.79539,-14.36309 1.79539,-14.36309 z"
           id="path1551"
           inkscape:connector-curvature="0" />
        <path
           style="fill:#dc9d00;fill-opacity:1;stroke:none;stroke-width:0.26458332px;stroke-linecap:butt;stroke-linejoin:miter;stroke-opacity:1"
           d="m 178.59375,126.43824 c 0,0 3.49628,-2.64583 4.91369,-6.42559 1.41741,-3.77976 2.07887,-8.12649 2.07887,-10.01637 0,-1.88988 -1.51191,5.38616 -3.40179,8.78795 -1.88988,3.40178 -3.68527,7.46502 -3.59077,7.65401 z"
           id="path1555"
           inkscape:connector-curvature="0" />
      </g>
      <path
         sodipodi:nodetypes="cscssscccc"
         inkscape:connector-curvature="0"
         id="path1561"
         d="m 163.96985,132.42879 c -1.22027,-0.6423 -4.81085,0.86862 -6.01356,1.13589 -1.20271,0.26727 -3.27405,1.26953 -4.54358,1.93771 -1.46998,0.26727 -2.87315,0.73499 -1.1359,1.46998 1.61057,0.68139 5.41221,-1.00226 5.14494,-0.80181 -0.26727,0.20045 -2.80633,2.93997 -2.80633,3.4745 0,0.53454 2.60588,2.80633 4.81085,3.00679 2.20497,0.20045 4.47677,-0.33409 4.94449,-0.80181 0.46772,-0.46773 0.90203,-1.10249 1.83747,-2.43884 0.60915,-1.24333 -1.7819,-6.72096 -2.23838,-6.98241 z"
         style="fill:#ffbb85;fill-opacity:1;stroke:none;stroke-width:0.26458332px;stroke-linecap:butt;stroke-linejoin:miter;stroke-opacity:1" />
      <path
         clip-path="url(#clipPath1638)"
         inkscape:connector-curvature="0"
         id="path1621"
         d="m 181.99553,66.623511 c 0,0 -2.1299,11.752376 -3.49628,18.142858 -1.36637,6.390478 -6.80357,10.110861 -6.80357,10.110861 0,0 -2.64583,6.70908 -3.68527,8.78795 -1.03943,2.07887 10.86682,-2.07887 15.30804,-2.92932 4.44122,-0.850446 10.01637,-0.850446 11.24479,0.66146 1.22842,1.51191 0.47247,-2.740327 -1.13393,-6.803573 -1.6064,-4.063243 -8.31547,-23.245534 -8.31547,-23.245534 z"
         style="fill:#583417;fill-opacity:1;stroke:none;stroke-width:0.26458332px;stroke-linecap:butt;stroke-linejoin:miter;stroke-opacity:1" />
    </g>
    <g
       id="g1709"
       transform="translate(3.3572799,-21.074954)"
       inkscape:export-xdpi="90"
       inkscape:export-ydpi="90">
      <path
         sodipodi:nodetypes="cccccccc"
         inkscape:connector-curvature="0"
         id="path1537"
         d="m 102.47879,192.01711 c 0,0 -0.21666,4.2117 2.99614,6.5268 3.2128,2.31511 7.3472,1.49234 10.08752,0.16943 2.74033,-1.32292 1.92469,-2.1271 1.92469,-2.1271 0,0 -3.59315,-2.03974 -4.49085,-3.31541 -0.89769,-1.27567 -2.58,-3.85231 -2.58,-3.85231 l -6.37834,0.14175 z"
         style="opacity:1;fill:#a15428;fill-opacity:1;stroke:none;stroke-width:0.26458332px;stroke-linecap:butt;stroke-linejoin:miter;stroke-opacity:1" />
      <path
         inkscape:connector-curvature="0"
         id="path1490"
         d="m 104.70284,86.792516 c 0,0 -1.40317,6.548101 -2.33861,7.14946 -0.93545,0.601355 -6.214018,3.407685 -6.214018,3.407685 0,0 4.543578,7.617179 7.416728,7.750819 2.87315,0.13363 9.35443,-0.20046 10.55715,-0.80181 1.20271,-0.60136 0.93544,-7.483547 0.86862,-8.619443 -0.0668,-1.135896 0.40091,-5.813113 0.40091,-5.813113 z"
         style="opacity:1;fill:#a15428;fill-opacity:1;stroke:none;stroke-width:0.26458332px;stroke-linecap:butt;stroke-linejoin:miter;stroke-opacity:1" />
      <path
         sodipodi:nodetypes="cscccc"
         clip-path="url(#clipPath1509)"
         inkscape:connector-curvature="0"
         id="path1492"
         d="m 103.90103,88.46295 c 0,0 2.33861,5.946745 4.07586,6.34765 1.73725,0.400905 10.22306,0.601357 10.22306,0.601357 l -3.14042,-9.42125 -7.61718,-1.469983 z"
         style="fill:#8b4822;fill-opacity:1;stroke:none;stroke-width:0.26458332px;stroke-linecap:butt;stroke-linejoin:miter;stroke-opacity:1" />
      <path
         inkscape:connector-curvature="0"
         id="path1486"
         d="m 106.97463,73.228588 c -0.73499,1.536798 -2.6727,6.280833 -2.80633,7.416728 -0.13364,1.135896 -0.40091,3.741772 -0.0668,5.479026 0.33409,1.737252 1.80407,6.013564 4.54358,6.347651 2.73951,0.334087 8.01809,-1.937705 9.08717,-4.677217 1.06907,-2.739512 2.93996,-8.619442 2.40542,-10.958052 -0.53454,-2.338607 -1.87089,-7.951266 -4.94448,-7.817633 -3.07361,0.133636 -7.21628,2.004523 -7.55037,2.80633 -0.33409,0.801809 -0.66817,1.403167 -0.66817,1.403167 z"
         style="opacity:1;fill:#a15428;fill-opacity:1;stroke:none;stroke-width:0.26458332px;stroke-linecap:butt;stroke-linejoin:miter;stroke-opacity:1" />
      <path
         sodipodi:nodetypes="czcccccccc"
         inkscape:connector-curvature="0"
         id="path1513"
         d="m 99.825168,97.550114 c 0,0 1.359272,3.794346 5.852252,4.511166 4.49297,0.71681 9.18166,-2.03892 9.18166,-2.03892 l -2.20497,20.57975 -3.20724,7.55036 -3.54132,3.47451 -7.550364,-2.40543 -3.741775,-1.9377 0.267269,-14.76664 z"
         style="opacity:1;fill:#ffb600;fill-opacity:1;stroke:none;stroke-width:0.26458332px;stroke-linecap:butt;stroke-linejoin:miter;stroke-opacity:1" />
      <path
         sodipodi:nodetypes="csssssc"
         inkscape:connector-curvature="0"
         id="path1533"
         d="m 90.194568,150.15625 c -1.370163,-0.14174 -3.02381,-1.32292 -3.685268,-1.46466 -0.661458,-0.14174 -3.449032,2.03162 -3.638021,2.36235 -0.188989,0.33073 -1.228423,4.44122 -1.370165,5.00819 -0.14174,0.56696 3.071058,0.94494 4.630208,0.61421 1.559153,-0.33073 5.575149,-0.85045 6.000374,-0.85045 0.425223,0 -1.937128,-5.66964 -1.937128,-5.66964 z"
         style="opacity:1;fill:#a15428;fill-opacity:1;stroke:none;stroke-width:0.26458332px;stroke-linecap:butt;stroke-linejoin:miter;stroke-opacity:1" />
      <path
         sodipodi:nodetypes="cscszzzccc"
         inkscape:connector-curvature="0"
         id="path1531"
         d="m 89.802561,149.33358 c 0,0 0.267269,1.20272 1.336347,4.00905 1.069078,2.80633 -0.267269,3.74177 1.737252,3.60814 2.00452,-0.13364 22.04973,0.13363 24.85607,-0.13364 2.80633,-0.26727 9.97396,-1.20271 11.89349,-2.00452 1.91953,-0.80181 3.93076,-4.28974 3.60814,-6.41447 -0.32262,-2.12473 -1.8702,-5.30555 -4.27632,-6.01356 -2.40612,-0.70801 -26.72695,-7.88445 -26.72695,-7.88445 l -14.833456,-4.2095 z"
         style="fill:#000640;fill-opacity:1;stroke:none;stroke-width:0.26458332px;stroke-linecap:butt;stroke-linejoin:miter;stroke-opacity:1" />
      <path
         sodipodi:nodetypes="zssscsccz"
         inkscape:connector-curvature="0"
         id="path1535"
         d="m 87.690475,148.54985 c -0.02448,0.45743 -2.55134,1.08668 -3.023809,1.6064 -0.472469,0.51972 -1.27567,2.12611 -1.559153,3.1183 -0.283482,0.99219 -1.322917,1.88988 -1.322917,2.64584 0,0.75595 1.086684,0.80319 1.086684,0.80319 0,0 -5.197173,4.06325 -6.52009,2.78758 -1.322917,-1.27567 -1.086681,-4.25223 -0.566965,-5.10268 0.519718,-0.85045 7.417784,-8.12649 8.079242,-8.07924 0.661459,0.0472 3.85149,1.76318 3.827008,2.22061 z"
         style="fill:#090909;fill-opacity:1;stroke:none;stroke-width:0.26458332px;stroke-linecap:butt;stroke-linejoin:miter;stroke-opacity:1" />
      <path
         sodipodi:nodetypes="ccsscsscsccccc"
         inkscape:connector-curvature="0"
         id="path1529"
         d="m 78.606884,145.26919 c 0,0 22.420996,6.73709 22.821896,8.47434 0.40091,1.73725 -1.870883,7.61718 -1.737247,12.16076 0.133635,4.54359 1.603617,11.09169 1.603617,14.43256 0,3.34087 0.53454,10.95805 0.4009,11.89349 -0.13363,0.93545 4.00905,-1.20271 5.7463,-1.20271 1.73725,0 4.67721,0.26727 4.27631,-0.80181 -0.4009,-1.06908 -1.46998,-7.21628 -1.06908,-10.15624 0.40091,-2.93996 2.80633,-17.63979 2.80633,-18.4416 0,-0.80181 1.20272,-9.35443 0.53454,-12.16076 -0.66817,-2.80633 -4.40995,-6.54811 -7.75081,-8.28536 -3.34087,-1.73725 -15.729766,-9.05751 -15.729766,-9.05751 0,0 -3.11274,-0.0297 -6.587243,2.64305 -3.474503,2.67269 -5.315747,10.50179 -5.315747,10.50179 z"
         style="fill:#000856;fill-opacity:1;stroke:none;stroke-width:0.26458332px;stroke-linecap:butt;stroke-linejoin:miter;stroke-opacity:1" />
      <path
         sodipodi:nodetypes="ccsccccc"
         inkscape:connector-curvature="0"
         id="path1527"
         d="m 110.11504,135.9367 c -0.10022,0.50113 0.66818,1.90429 0.63477,2.23838 -0.0334,0.33409 -0.26727,1.26953 -0.70158,1.26953 -0.43432,0 -5.17835,-1.23612 -5.84652,-2.00452 -0.66818,-0.7684 0.73499,-3.17383 0.73499,-3.17383 l 2.17156,-3.17382 3.24064,-0.20045 z"
         style="fill:#974f25;fill-opacity:1;stroke:none;stroke-width:0.26458332px;stroke-linecap:butt;stroke-linejoin:miter;stroke-opacity:1" />
      <path
         sodipodi:nodetypes="cccccccc"
         inkscape:connector-curvature="0"
         id="path1525"
         d="m 101.77009,129.36756 c 1.13393,-0.0472 4.67745,-0.56697 5.71689,0.56696 1.03943,1.13393 1.50519,2.86962 1.93041,3.95631 0.42523,1.08668 0.95166,1.52435 -1.17446,2.51653 -2.12612,0.99219 -3.40179,1.7009 -5.19717,0.85045 -1.79539,-0.85045 -3.07106,-1.08668 -3.590775,-2.36235 -0.519719,-1.27567 0.708705,-4.58296 0.708705,-4.58296 z"
         style="fill:#a15428;fill-opacity:1;stroke:none;stroke-width:0.26458332px;stroke-linecap:butt;stroke-linejoin:miter;stroke-opacity:1" />
      <path
         inkscape:connector-curvature="0"
         id="path1515"
         d="m 98.840773,89.302081 c 0,0 -5.575149,-0.472469 -9.449406,2.504093 -3.874254,2.976563 -7.701264,9.827386 -9.260416,14.410336 -1.55915,4.58297 -4.488466,12.56772 -4.346726,14.17411 0.141742,1.6064 4.110492,7.08706 5.953125,8.032 1.842635,0.94494 4.771951,3.54352 6.142114,3.68527 1.370163,0.14174 7.181548,1.5119 8.598958,2.03162 1.41741,0.51972 2.645833,1.41741 2.69308,1.03943 0.04725,-0.37797 0.992188,-3.63802 1.417408,-4.20498 0.42523,-0.56697 1.93713,-1.55915 1.41741,-1.93713 -0.51971,-0.37798 -6.283849,-1.7009 -6.047616,-2.78758 0.236236,-1.08668 1.559152,-11.62276 1.559152,-12.37872 0,-0.75595 1.464657,-8.50446 1.700893,-10.58333 0.236236,-2.07887 1.275671,-4.488467 1.228421,-5.338914 -0.0472,-0.850445 -1.606397,-8.646205 -1.606397,-8.646205 z"
         style="opacity:1;fill:#d1d1d1;fill-opacity:1;stroke:none;stroke-width:0.26458332px;stroke-linecap:butt;stroke-linejoin:miter;stroke-opacity:1" />
      <path
         inkscape:connector-curvature="0"
         id="path1517"
         d="m 90.203463,106.50364 c -0.400902,1.46999 -5.278572,10.82442 -3.741771,12.56167 1.5368,1.73725 7.34991,6.5481 7.750815,6.68174 0.400904,0.13363 -2.672694,-1.73725 -3.207234,-8.41899 -0.534538,-6.68174 -0.601356,-10.28988 -0.80181,-10.82442 z"
         style="fill:#bebebe;fill-opacity:1;stroke:none;stroke-width:0.26458332px;stroke-linecap:butt;stroke-linejoin:miter;stroke-opacity:1" />
      <path
         sodipodi:nodetypes="cscccsccccc"
         inkscape:connector-curvature="0"
         id="path1521"
         d="m 78.0427,123.27481 c 0,0 -2.806329,7.48354 -3.140416,9.42125 -0.334087,1.9377 -2.271792,9.75533 -2.405425,10.35669 -0.133636,0.60136 -1.670436,8.68626 -2.204974,9.2208 -0.53454,0.53454 -3.474503,1.60362 -1.269529,2.67269 2.204971,1.06908 4.677214,1.06908 5.612659,0.80181 0.935442,-0.26727 2.794867,-2.38111 3.663491,-3.58382 0.868627,-1.20271 5.25368,-5.27661 5.387313,-5.67751 0.133635,-0.40091 -1.634073,-3.56761 -0.765448,-5.57213 2.495264,-4.40943 6.376097,-5.55351 8.35217,-10.42351 0.334087,-0.86862 -13.229841,-7.21627 -13.229841,-7.21627 z"
         style="fill:#d1d1d1;fill-opacity:1;stroke:none;stroke-width:0.26458332px;stroke-linecap:butt;stroke-linejoin:miter;stroke-opacity:1" />
      <path
         sodipodi:nodetypes="cssscczzccccc"
         inkscape:connector-curvature="0"
         id="path1519"
         d="m 114.05727,103.22959 c 0,0 -1.06908,7.55037 -1.33635,9.55489 -0.26727,2.00452 -2.60588,10.42351 -3.00678,11.89349 -0.4009,1.46998 -2.40543,4.40995 -2.73951,4.74403 -0.33409,0.33409 -0.13364,-0.8018 1.26953,1.53681 1.40316,2.3386 1.46998,5.21175 2.13815,5.07811 0.66818,-0.13363 8.71393,-7.79462 9.426,-9.44336 0.71207,-1.64873 1.88039,-8.76872 2.34811,-12.39446 0.46772,-3.62574 1.18847,-8.56408 1.25528,-9.90043 0.0668,-1.33635 0.93545,-5.412209 -1.46998,-6.748556 -2.40542,-1.336349 -7.88445,1.269529 -7.95127,2.472246 -0.0668,1.20271 0.0668,3.20723 0.0668,3.20723 z"
         style="opacity:1;fill:#d1d1d1;fill-opacity:1;stroke:none;stroke-width:0.26458332px;stroke-linecap:butt;stroke-linejoin:miter;stroke-opacity:1" />
      <path
         sodipodi:nodetypes="cccscsscscczcccsscsc"
         inkscape:connector-curvature="0"
         id="path1488"
         d="m 114.18222,71.772852 c 0,0 -4.46808,-1.484231 -6.40579,1.255282 -1.9377,2.739512 -3.06074,7.72928 -3.19438,9.132445 -0.13363,1.403165 0.61757,8.175464 0.41712,9.378175 -0.20045,1.202714 -2.03359,-3.409891 -1.03133,1.868681 1.00227,5.278575 2.6727,5.412208 -0.8018,5.34539 -3.474507,-0.06682 -4.744036,0.668177 -5.746299,-0.400904 -1.00226,-1.069078 2.33861,-14.633006 2.672699,-16.102989 0.33408,-1.469982 4.34313,-14.098465 13.69756,-13.630746 9.35443,0.467723 8.8104,9.679026 8.87721,11.750364 0.0668,2.071338 0.74253,11.688292 1.14343,13.826448 0.40091,2.138156 2.06659,7.732642 1.80604,8.900962 -0.26055,1.16832 -13.68414,-0.18228 -14.6864,-0.51637 -1.00226,-0.33408 2.85972,-5.363562 3.12699,-5.964921 0.26727,-0.601355 -2.90951,2.096236 -4.57995,2.430316 -1.67043,0.33409 4.11223,-4.619076 5.04767,-6.155874 0.93544,-1.536801 3.67496,-4.158893 3.87541,-9.237014 0.20045,-5.078119 -1.37491,-9.347715 -2.97853,-11.018152 -0.8018,-0.835216 2.0609,-1.133172 1.06318,-1.553053 -0.99771,-0.41988 -1.36739,0.69196 -2.30283,0.69196 z"
         style="fill:#000000;fill-opacity:1;stroke:none;stroke-width:0.26458332px;stroke-linecap:butt;stroke-linejoin:miter;stroke-opacity:1" />
      <path
         inkscape:connector-curvature="0"
         id="path1523"
         d="m 110.27455,127.85565 c 0,0 4.53572,-3.49628 5.00819,-5.10267 0.47247,-1.6064 2.55134,-11.81176 2.17336,-12.7567 -0.37798,-0.94494 -2.45684,9.5439 -3.1183,11.1503 -0.66146,1.6064 -4.06325,6.70907 -4.06325,6.70907 z"
         style="fill:#bebebe;fill-opacity:1;stroke:none;stroke-width:0.26458332px;stroke-linecap:butt;stroke-linejoin:miter;stroke-opacity:1" />
      <path
         inkscape:connector-curvature="0"
         id="path1539"
         d="m 102.13037,192.73147 c 0,0 -1.16931,3.94223 -1.1359,4.64381 0.0334,0.70158 -0.10022,1.43657 0.53454,2.07134 0.63477,0.63477 3.20724,1.30294 4.51017,1.83748 1.30294,0.53454 3.17383,2.33861 5.07812,2.43883 1.9043,0.10023 6.48129,-0.43431 7.21628,-0.86862 0.73499,-0.43432 2.90656,-1.03567 2.80633,-2.23839 -0.10023,-1.20271 -0.70158,-2.07134 -1.83748,-2.7061 -1.13589,-0.63476 -1.5702,-1.50339 -1.9377,-1.26953 -0.36749,0.23386 -2.63929,1.60362 -3.842,1.80407 -1.20271,0.20045 -2.47224,1.80407 -4.87767,1.20271 -2.40542,-0.60135 -5.64607,-3.67495 -5.87993,-5.31198 -0.23386,-1.63703 -0.63476,-1.60362 -0.63476,-1.60362 z"
         style="fill:#000000;fill-opacity:1;stroke:none;stroke-width:0.26458332px;stroke-linecap:butt;stroke-linejoin:miter;stroke-opacity:1" />
      <path
         inkscape:connector-curvature="0"
         id="path1596"
         d="m 98.55729,112.22553 c 0,0 5.35684,0.52969 6.36124,0.0662 1.00441,-0.46348 1.116,0.19864 2.67842,0.72833 1.56241,0.5297 3.90602,0.46348 3.90602,0.46348 0,0 -4.79883,1.12561 -5.46844,0.39728 -0.6696,-0.72833 -4.79882,0.79454 -5.80323,-0.0662 -1.004405,-0.86075 -1.67401,-1.58908 -1.67401,-1.58908 z"
         style="fill:#dc9d00;fill-opacity:0.61488677;stroke:none;stroke-width:0.24069074px;stroke-linecap:butt;stroke-linejoin:miter;stroke-opacity:1" />
    </g>
    <path
       style="opacity:1;vector-effect:none;fill:#f4f4f4;fill-opacity:1;stroke:none;stroke-width:1.16499996;stroke-linecap:round;stroke-linejoin:bevel;stroke-miterlimit:2.29999995;stroke-dasharray:27.95999964, 27.95999964;stroke-dashoffset:0;stroke-opacity:1;paint-order:markers stroke fill"
       id="path1745"
       sodipodi:type="arc"
       sodipodi:cx="53.294643"
       sodipodi:cy="59.252975"
       sodipodi:rx="13.607142"
       sodipodi:ry="13.607142"
       sodipodi:start="0.32175145"
       sodipodi:end="0.14707837"
       sodipodi:open="true"
       d="M 66.203508,63.555943 A 13.607142,13.607142 0 0 1 49.559306,72.337378 13.607142,13.607142 0 0 1 40.059651,56.092391 13.607142,13.607142 0 0 1 55.874449,45.892626 13.607142,13.607142 0 0 1 66.754876,61.247084"
       inkscape:export-xdpi="90"
       inkscape:export-ydpi="90" />
    <path
       style="opacity:1;vector-effect:none;fill:#ffb600;fill-opacity:1;stroke:none;stroke-width:1.16499996;stroke-linecap:round;stroke-linejoin:bevel;stroke-miterlimit:2.29999995;stroke-dasharray:27.95999964, 27.95999964;stroke-dashoffset:0;stroke-opacity:1;paint-order:markers stroke fill"
       id="path1749"
       sodipodi:type="arc"
       sodipodi:cx="20.221727"
       sodipodi:cy="101.39732"
       sodipodi:rx="6.9925594"
       sodipodi:ry="6.9925594"
       sodipodi:start="0.32175145"
       sodipodi:end="0.14707837"
       sodipodi:open="true"
       d="m 26.85545,103.60857 a 6.9925594,6.9925594 0 0 1 -8.553271,4.51268 6.9925594,6.9925594 0 0 1 -4.881767,-8.348116 6.9925594,6.9925594 0 0 1 8.127049,-5.241545 6.9925594,6.9925594 0 0 1 5.59133,7.890481"
       inkscape:export-xdpi="90"
       inkscape:export-ydpi="90" />
    <path
       style="opacity:1;vector-effect:none;fill:none;fill-opacity:1;stroke:#000000;stroke-width:0.96499997;stroke-linecap:round;stroke-linejoin:bevel;stroke-miterlimit:2.29999995;stroke-dasharray:none;stroke-dashoffset:0;stroke-opacity:1;paint-order:markers stroke fill"
       id="path1753"
       sodipodi:type="arc"
       sodipodi:cx="58.586308"
       sodipodi:cy="73.994041"
       sodipodi:rx="9.8273811"
       sodipodi:ry="9.8273811"
       sodipodi:start="0.32175145"
       sodipodi:end="6.2188281"
       sodipodi:open="true"
       d="m 67.909377,77.101741 a 9.8273811,9.8273811 0 0 1 -11.517769,6.471482 9.8273811,9.8273811 0 0 1 -7.551409,-10.840449 9.8273811,9.8273811 0 0 1 10.0622,-8.561029 9.8273811,9.8273811 0 0 1 9.490945,9.19027"
       inkscape:export-xdpi="90"
       inkscape:export-ydpi="90" />
    <path
       style="opacity:1;vector-effect:none;fill:none;fill-opacity:1;stroke:#000000;stroke-width:0.96499997;stroke-linecap:round;stroke-linejoin:bevel;stroke-miterlimit:2.29999995;stroke-dasharray:none;stroke-dashoffset:0;stroke-opacity:1;paint-order:markers stroke fill"
       id="path1755"
       sodipodi:type="arc"
       sodipodi:cx="196.7366"
       sodipodi:cy="146.37648"
       sodipodi:rx="5.1026788"
       sodipodi:ry="5.1026788"
       sodipodi:start="0.32175145"
       sodipodi:end="5.8723894"
       sodipodi:open="true"
       d="m 201.57743,147.99009 a 5.1026788,5.1026788 0 0 1 -5.54587,3.44013 5.1026788,5.1026788 0 0 1 -4.39258,-4.82663 5.1026788,5.1026788 0 0 1 3.94596,-5.19813 5.1026788,5.1026788 0 0 1 5.82982,2.93332"
       inkscape:export-xdpi="90"
       inkscape:export-ydpi="90" />
  </g>
</svg>
