<?xml version="1.0" encoding="UTF-8" standalone="no"?>
<!-- Created with Inkscape (http://www.inkscape.org/) -->

<svg
   xmlns:dc="http://purl.org/dc/elements/1.1/"
   xmlns:cc="http://creativecommons.org/ns#"
   xmlns:rdf="http://www.w3.org/1999/02/22-rdf-syntax-ns#"
   xmlns:svg="http://www.w3.org/2000/svg"
   xmlns="http://www.w3.org/2000/svg"
   xmlns:sodipodi="http://sodipodi.sourceforge.net/DTD/sodipodi-0.dtd"
   xmlns:inkscape="http://www.inkscape.org/namespaces/inkscape"
   width="141.46342mm"
   height="165.76051mm"
   viewBox="0 0 141.46342 165.76051"
   version="1.1"
   id="svg8"
   inkscape:export-filename="C:\Users\sarah.lachise\Pictures\illustrations\ado-appel.png"
   inkscape:export-xdpi="90"
   inkscape:export-ydpi="90"
   inkscape:version="0.92.2 (5c3e80d, 2017-08-06)"
   sodipodi:docname="ado-appel.svg">
  <defs
     id="defs2">
    <clipPath
       clipPathUnits="userSpaceOnUse"
       id="clipPath863">
      <path
         style="opacity:0.65499998;fill:#ffffff;fill-opacity:1;stroke:none;stroke-width:0.26458332px;stroke-linecap:butt;stroke-linejoin:miter;stroke-opacity:1"
         d="m 47.373524,140.1796 c 0,0 0.734991,-1.06907 1.536801,-2.33861 0.801806,-1.26953 1.804069,-2.27179 1.937702,-2.80633 0.133636,-0.53453 0.334087,-1.60361 0.400905,-3.8754 0.06682,-2.2718 1.737251,-4.67722 4.34313,-4.40995 2.605879,0.26727 5.612659,1.60362 5.746295,3.14042 0.133636,1.5368 1.403165,5.94674 1.336347,7.21627 -0.06682,1.26953 0.383024,3.16382 0.258331,5.49073 -0.124696,2.32691 -0.5256,3.79689 -0.726051,5.26687 -0.200454,1.46998 -0.668176,2.47225 -0.668176,2.47225 L 47.50716,140.44687 Z"
         id="path865"
         inkscape:connector-curvature="0" />
    </clipPath>
    <clipPath
       clipPathUnits="userSpaceOnUse"
       id="clipPath906">
      <path
         style="fill:#623410;fill-opacity:1;stroke:none;stroke-width:0.26458332px;stroke-linecap:butt;stroke-linejoin:miter;stroke-opacity:1"
         d="m 118.11756,96.483628 c 0,0 -5.85863,-12.567703 -8.12649,-17.29241 -2.26786,-4.724699 -3.49628,-7.276039 -4.44122,-8.598956 -0.94494,-1.322917 -0.47247,-2.173364 -1.32292,-2.834822 -0.85044,-0.661459 -1.79538,-3.02381 -2.64583,-4.157737 -0.85045,-1.13393 -2.834824,-6.142114 -3.307294,-6.709079 -0.472471,-0.566963 -2.740329,-3.496279 -3.307294,-3.543525 -0.566962,-0.04725 -1.133927,0.944938 -1.086681,1.181174 0.04725,0.236236 -1.842637,-1.464657 -2.267857,-1.700893 -0.425223,-0.236236 -0.236236,-0.661458 -0.803198,-0.14174 -0.566965,0.519716 -0.755957,0.992188 -0.755957,0.992188 0,0 -0.188984,-0.236236 -0.661456,-0.566965 -0.472469,-0.330729 -0.755952,-0.755952 -1.228421,-0.614212 -0.472471,0.14174 -2.929316,1.889882 -3.071058,2.173364 -0.14174,0.28348 -1.464657,0.47247 -1.889879,0.566963 -0.425225,0.0945 -1.27567,1.27567 -0.897694,1.464659 0.377975,0.188987 2.173361,-0.04725 2.598586,0.377976 0.425223,0.425222 4.535713,4.488466 4.535713,4.771948 0,0.283483 -2.645834,-1.748139 -3.02381,-2.126115 -0.377975,-0.377976 -1.370163,-0.236236 -1.464656,0.236236 -0.09449,0.472469 0.614212,1.275667 0.708705,1.653646 0.09449,0.377976 0.236236,1.464657 1.133927,2.126115 0.897695,0.661458 0.944941,2.031622 2.173365,2.504093 1.228423,0.472469 7.039805,2.126115 7.417784,3.165549 0.37797,1.039434 10.724335,30.611275 10.724335,30.611275 z"
         id="path908"
         inkscape:connector-curvature="0" />
    </clipPath>
    <clipPath
       clipPathUnits="userSpaceOnUse"
       id="clipPath1034">
      <path
         inkscape:connector-curvature="0"
         id="path1036"
         d="m 124.09949,99.266407 c 3.20724,-2.672697 8.95353,-6.013567 14.29892,-5.479029 5.34539,0.53454 11.8935,0.133636 14.16529,8.552632 2.27179,8.41899 0.93544,13.76438 -1.20272,18.57523 -2.13815,4.81085 2.00453,8.81989 3.34087,9.2208 1.33635,0.4009 5.07812,1.46998 3.20724,2.93996 -1.87089,1.46998 -1.20272,2.93997 -7.08265,3.47451 -5.87992,0.53453 -12.6953,1.33634 -14.43255,1.20271 -1.73725,-0.13364 1.60362,-2.00452 0.80181,-3.20724 -0.80181,-1.20271 1.20271,-2.27179 -1.46998,-3.34086 -2.6727,-1.06908 -5.47903,-1.20272 -7.21628,-3.74178 -1.73726,-2.53906 -2.9741,-5.70255 -3.21033,-6.69474 -0.23624,-0.99219 0.23623,-2.12612 -0.23624,-2.97656 -0.47247,-0.85045 -2.03162,-2.88207 -2.12611,-3.63802 -0.0945,-0.75595 0.28348,-1.41741 -0.18899,-2.26786 -0.47247,-0.85045 -1.55916,-2.64583 -1.41741,-4.25223 0.14174,-1.6064 1.00255,-6.24621 2.76913,-8.367523 z"
         style="fill:#623410;fill-opacity:1;stroke:none;stroke-width:0.26458332px;stroke-linecap:butt;stroke-linejoin:miter;stroke-opacity:1" />
    </clipPath>
    <clipPath
       clipPathUnits="userSpaceOnUse"
       id="clipPath1055">
      <path
         inkscape:connector-curvature="0"
         id="path1057"
         d="m 124.09949,99.266407 c 3.20724,-2.672697 8.95353,-6.013567 14.29892,-5.479029 5.34539,0.53454 11.8935,0.133636 14.16529,8.552632 2.27179,8.41899 0.93544,13.76438 -1.20272,18.57523 -2.13815,4.81085 2.00453,8.81989 3.34087,9.2208 1.33635,0.4009 5.07812,1.46998 3.20724,2.93996 -1.87089,1.46998 -1.20272,2.93997 -7.08265,3.47451 -5.87992,0.53453 -12.6953,1.33634 -14.43255,1.20271 -1.73725,-0.13364 1.60362,-2.00452 0.80181,-3.20724 -0.80181,-1.20271 1.20271,-2.27179 -1.46998,-3.34086 -2.6727,-1.06908 -5.47903,-1.20272 -7.21628,-3.74178 -1.73726,-2.53906 -2.9741,-5.70255 -3.21033,-6.69474 -0.23624,-0.99219 0.23623,-2.12612 -0.23624,-2.97656 -0.47247,-0.85045 -2.03162,-2.88207 -2.12611,-3.63802 -0.0945,-0.75595 0.28348,-1.41741 -0.18899,-2.26786 -0.47247,-0.85045 -1.55916,-2.64583 -1.41741,-4.25223 0.14174,-1.6064 1.00255,-6.24621 2.76913,-8.367523 z"
         style="fill:#623410;fill-opacity:1;stroke:none;stroke-width:0.26458332px;stroke-linecap:butt;stroke-linejoin:miter;stroke-opacity:1" />
    </clipPath>
    <clipPath
       clipPathUnits="userSpaceOnUse"
       id="clipPath866">
      <path
         style="fill:#9a521a;fill-opacity:1;stroke:none;stroke-width:0.26458332px;stroke-linecap:butt;stroke-linejoin:miter;stroke-opacity:1"
         d="m 34.488896,108.63988 c 0,0 -3.207235,4.40995 -3.34087,7.48355 -0.133636,3.0736 0.06207,6.76002 0.57368,8.82939 0.98408,3.10881 4.036719,8.81039 5.172615,10.41401 1.135895,1.60362 2.120638,5.85721 10.003612,5.3051 7.882975,-0.55211 5.67599,-3.51425 8.705255,-7.97779 3.029265,-4.46354 3.875408,-10.69078 3.875408,-15.90254 0,-5.21175 -3.552786,-11.96506 -7.695462,-13.16777 -4.142677,-1.20271 -7.939805,-1.92624 -11.681579,-0.0554 -3.741772,1.87088 -5.612659,5.0714 -5.612659,5.0714 z"
         id="path868"
         inkscape:connector-curvature="0"
         sodipodi:nodetypes="csczzzssccc" />
    </clipPath>
    <clipPath
       clipPathUnits="userSpaceOnUse"
       id="clipPath887">
      <path
         style="fill:#623410;fill-opacity:1;stroke:none;stroke-width:0.26458332px;stroke-linecap:butt;stroke-linejoin:miter;stroke-opacity:1"
         d="m 124.50039,97.261887 c 3.20724,-2.672699 8.95353,-6.013569 14.29892,-5.479029 5.34539,0.534538 11.8935,0.133628 14.16529,8.552632 2.27179,8.41899 0.93544,13.76438 -1.20272,18.57523 -2.13815,4.81085 1.60363,10.82441 2.93997,11.22532 1.33635,0.4009 5.07812,1.46998 3.20724,2.93996 -1.87089,1.46998 -1.20272,2.93997 -7.08265,3.47451 -5.87992,0.53453 -12.6953,1.33634 -14.43255,1.20271 -1.73725,-0.13364 1.60362,-2.00452 0.80181,-3.20724 -0.80181,-1.20271 1.20271,-2.27179 -1.46998,-3.34086 -2.6727,-1.06908 -5.47903,-1.20272 -7.21628,-3.74178 -1.73726,-2.53906 -2.9741,-5.70255 -3.21033,-6.69474 -0.23624,-0.99219 0.23623,-2.12612 -0.23624,-2.97656 -0.47247,-0.85045 -2.03162,-2.88207 -2.12611,-3.63802 -0.0945,-0.75595 0.28348,-1.41741 -0.18899,-2.26786 -0.47247,-0.85045 -1.15826,-4.65035 -1.01651,-6.25675 0.14174,-1.6064 1.00255,-6.246213 2.76913,-8.367523 z"
         id="path890"
         inkscape:connector-curvature="0"
         sodipodi:nodetypes="csscccccccccccscc" />
    </clipPath>
  </defs>
  <sodipodi:namedview
     id="base"
     pagecolor="#ffffff"
     bordercolor="#666666"
     borderopacity="1.0"
     inkscape:pageopacity="0.0"
     inkscape:pageshadow="2"
     inkscape:zoom="0.49497475"
     inkscape:cx="10.86285"
     inkscape:cy="377.56741"
     inkscape:document-units="mm"
     inkscape:current-layer="layer1"
     showgrid="false"
     inkscape:snap-nodes="true"
     inkscape:window-width="1920"
     inkscape:window-height="1001"
     inkscape:window-x="-9"
     inkscape:window-y="-9"
     inkscape:window-maximized="1" />
  <metadata
     id="metadata5">
    <rdf:RDF>
      <cc:Work
         rdf:about="">
        <dc:format>image/svg+xml</dc:format>
        <dc:type
           rdf:resource="http://purl.org/dc/dcmitype/StillImage" />
        <dc:title />
      </cc:Work>
    </rdf:RDF>
  </metadata>
  <g
     inkscape:label="Calque 1"
     inkscape:groupmode="layer"
     id="layer1"
     transform="translate(-30.524133,-19.176669)">
    <g
       id="g933" />
    <g
       id="g1091"
       transform="translate(7.1815476,-32.505952)"
       inkscape:export-xdpi="90"
       inkscape:export-ydpi="90">
      <path
         sodipodi:nodetypes="cssssc"
         inkscape:connector-curvature="0"
         id="path935"
         d="m 161.14136,148.87457 c -12.06091,36.18263 -50.47624,56.45045 -87.15089,45.98057 -48.191875,-13.75782 1.408472,-40.66042 -7.549872,-55.97973 -8.958344,-15.31931 -49.644639,4.96456 -42.191382,-29.08083 8.156452,-37.257489 45.359937,-60.638116 82.808044,-53.407105 37.44811,7.231009 62.56048,42.669579 56.97113,80.397655"
         style="opacity:1;vector-effect:none;fill:#f0f0f0;fill-opacity:1;stroke:none;stroke-width:1.16499996;stroke-linecap:round;stroke-linejoin:bevel;stroke-miterlimit:2.29999995;stroke-dasharray:27.95999964, 27.95999964;stroke-dashoffset:0;stroke-opacity:1;paint-order:markers stroke fill"
         inkscape:export-xdpi="90"
         inkscape:export-ydpi="90" />
      <path
         d="m 144.39909,79.730643 a 9.1763229,9.1763229 0 0 1 -11.22445,5.921984 9.1763229,9.1763229 0 0 1 -6.40633,-10.955221 9.1763229,9.1763229 0 0 1 10.66511,-6.878471 9.1763229,9.1763229 0 0 1 7.33749,10.35467"
         sodipodi:open="true"
         sodipodi:end="0.14707837"
         sodipodi:start="0.32175145"
         sodipodi:ry="9.1763229"
         sodipodi:rx="9.1763229"
         sodipodi:cy="76.828827"
         sodipodi:cx="135.69366"
         sodipodi:type="arc"
         id="path938-4-3-4"
         style="opacity:1;vector-effect:none;fill:none;fill-opacity:1;stroke:#000000;stroke-width:1.11061728;stroke-linecap:round;stroke-linejoin:bevel;stroke-miterlimit:2.29999995;stroke-dasharray:none;stroke-dashoffset:0;stroke-opacity:1;paint-order:markers stroke fill"
         inkscape:export-xdpi="90"
         inkscape:export-ydpi="90" />
      <path
         inkscape:connector-curvature="0"
         id="path1000-1"
         d="M 157.68031,66.43541 97.453603,210.06459"
         style="fill:none;stroke:#494949;stroke-width:0.84126455;stroke-linecap:butt;stroke-linejoin:miter;stroke-miterlimit:4;stroke-dasharray:5.04758751, 5.04758751;stroke-dashoffset:0;stroke-opacity:1"
         inkscape:export-xdpi="90"
         inkscape:export-ydpi="90" />
      <path
         d="m 124.41068,170.39683 a 9.6217022,9.6217022 0 0 1 -11.76922,6.20941 9.6217022,9.6217022 0 0 1 -6.71727,-11.48694 9.6217022,9.6217022 0 0 1 11.18275,-7.21232 9.6217022,9.6217022 0 0 1 7.69362,10.85724"
         sodipodi:open="true"
         sodipodi:end="0.14707837"
         sodipodi:start="0.32175145"
         sodipodi:ry="9.6217022"
         sodipodi:rx="9.6217022"
         sodipodi:cy="167.35417"
         sodipodi:cx="115.28274"
         sodipodi:type="arc"
         id="path938-2"
         style="opacity:1;vector-effect:none;fill:#ffe299;fill-opacity:1;stroke:none;stroke-width:1.16499996;stroke-linecap:round;stroke-linejoin:bevel;stroke-miterlimit:2.29999995;stroke-dasharray:27.95999994, 27.95999994;stroke-dashoffset:0;stroke-opacity:1;paint-order:markers stroke fill"
         inkscape:export-xdpi="90"
         inkscape:export-ydpi="90" />
      <path
         inkscape:connector-curvature="0"
         id="path1000"
         d="M 29.154913,76.308203 145.84806,202.45965"
         style="fill:none;stroke:#000000;stroke-width:0.90210414;stroke-linecap:butt;stroke-linejoin:miter;stroke-miterlimit:4;stroke-dasharray:0.90210415, 7.21683323;stroke-dashoffset:0;stroke-opacity:1"
         inkscape:export-xdpi="90"
         inkscape:export-ydpi="90" />
      <path
         sodipodi:nodetypes="czcsscsccccccccccsssccc"
         style="opacity:1;fill:#ffb600;fill-opacity:1;stroke:none;stroke-width:0.26458332px;stroke-linecap:butt;stroke-linejoin:miter;stroke-opacity:1"
         d="m 137.32278,133.64272 c 0,0 -5.97771,7.94816 -8.3289,15.61003 -2.35119,7.66188 -3.02955,18.51731 -3.87312,30.26544 -0.18898,3.49627 -2.56198,7.96321 -2.65648,12.12095 -0.0945,4.15774 -0.37797,7.37053 -1.03943,10.86681 -0.66146,3.49628 -2.07887,4.06325 -0.75595,6.3311 1.32292,2.26786 4.63021,5.57515 8.88244,2.92932 4.25223,-2.64583 16.53646,-7.74851 19.0878,-9.73289 2.55134,-1.98437 8.22098,-8.50446 9.92187,-11.43378 1.7009,-2.92931 -0.28348,-5.57515 -0.66145,-11.52827 -0.37798,-5.95313 -0.66146,-10.67783 1.13393,-15.875 3.22076,-9.23808 6.29271,-19.73787 3.68526,-29.19866 -2.15742,-4.36542 -3.51145,-9.41366 -4.95955,-13.16432 -1.22842,-3.2128 -4.06799,-8.47007 -4.06799,-8.47007 -0.20854,1.78284 -1.07952,3.5216 -1.18927,4.8364 -0.42523,1.13392 -1.44035,2.59997 -1.55106,3.96539 -0.37797,0.89769 -0.46911,2.4855 -0.0439,4.04465 0.42522,1.55915 1.74814,4.48847 3.44903,4.96094 1.70089,0.47247 3.55499,1.03468 3.55499,1.83788 0,0.8032 -1.57119,2.71741 -4.9973,3.68527 -3.72307,1.05176 -13.96022,2.08362 -15.1414,1.98913 -1.18117,-0.0945 -1.02461,-0.37937 -0.74112,-1.04083 0.28348,-0.66146 1.78588,-1.95334 0.29158,-2.99949 z"
         id="path879"
         inkscape:connector-curvature="0"
         inkscape:export-xdpi="90"
         inkscape:export-ydpi="90" />
      <path
         style="fill:#623410;fill-opacity:1;stroke:none;stroke-width:0.26458332px;stroke-linecap:butt;stroke-linejoin:miter;stroke-opacity:1"
         d="m 134.18155,168.11012 c 0,0 1.98437,8.59896 1.13393,9.92187 -0.85045,1.32292 -8.31548,6.14212 -11.33929,7.55953 -3.02381,1.41741 -7.18155,2.55134 -8.22098,4.34672 -1.03944,1.79539 -1.32292,6.52009 -0.85045,8.12649 0.47247,1.6064 1.6064,7.18155 2.83482,7.74851 1.22842,0.56697 3.30729,1.6064 3.30729,0.18899 0,-1.41741 -0.56696,-0.37798 0.0945,-3.2128 0.66146,-2.83482 0.94495,-5.76413 0.94495,-5.76413 0,0 5.38616,-1.41741 7.46503,-2.26786 2.07887,-0.85045 15.40253,-6.52009 16.15848,-8.59896 0.75596,-2.07887 0.18899,-10.58333 -0.28348,-13.70164 -0.47247,-3.1183 -0.28348,-2.83482 -0.28348,-2.83482 0,0 -3.40179,0.66146 -5.76414,-0.0945 -2.36235,-0.75595 -5.19717,-1.41741 -5.19717,-1.41741 z"
         id="path881"
         inkscape:connector-curvature="0"
         inkscape:export-xdpi="90"
         inkscape:export-ydpi="90" />
      <path
         style="fill:#da9b00;fill-opacity:1;stroke:none;stroke-width:0.26458332px;stroke-linecap:butt;stroke-linejoin:miter;stroke-opacity:1"
         d="m 135.22099,146.84896 c 3.59077,1.03943 9.16592,5.10268 10.01636,7.65402 0.85045,2.55134 1.7009,9.92187 1.79539,11.1503 0.0945,1.22842 0.47247,3.68526 0,3.87425 -0.47247,0.18899 -7.27604,0.56696 -10.11086,-0.47247 -2.83482,-1.03943 -8.69346,-0.94494 -9.26042,-2.07887 -0.56697,-1.13393 1.22842,-9.63839 1.51191,-11.90625 0.28348,-2.26786 1.22842,-8.03199 6.04762,-8.22098 z"
         id="path883"
         inkscape:connector-curvature="0"
         inkscape:export-xdpi="90"
         inkscape:export-ydpi="90" />
      <path
         style="fill:#623410;fill-opacity:1;stroke:none;stroke-width:0.26458332px;stroke-linecap:butt;stroke-linejoin:miter;stroke-opacity:1"
         d="m 145.33185,95.727677 c 0,0 -5.85863,-12.567708 -8.12649,-17.29241 -2.26786,-4.724701 -3.49628,-7.276041 -4.44122,-8.598958 -0.94494,-1.322916 -0.47247,-2.173364 -1.32292,-2.834822 -0.85044,-0.661459 -1.79538,-3.023809 -2.64583,-4.157737 -0.85045,-1.13393 -2.83482,-6.142114 -3.3073,-6.709079 -0.47247,-0.566962 -2.74032,-3.496278 -3.30729,-3.543525 -0.56696,-0.04725 -1.13393,0.944938 -1.08668,1.181174 0.0472,0.236236 -1.84263,-1.464656 -2.26786,-1.700892 -0.42522,-0.236236 -0.23623,-0.661459 -0.80319,-0.14174 -0.56697,0.519716 -0.75596,0.992187 -0.75596,0.992187 0,0 -0.18899,-0.236236 -0.66146,-0.566965 -0.47247,-0.330729 -0.75595,-0.755951 -1.22842,-0.614211 -0.47247,0.141739 -2.92931,1.889881 -3.07106,2.173364 -0.14174,0.28348 -1.46465,0.472469 -1.88988,0.566962 -0.42522,0.0945 -1.27567,1.27567 -0.89769,1.464659 0.37798,0.188987 2.17336,-0.04725 2.59859,0.377976 0.42522,0.425223 4.53571,4.488466 4.53571,4.771948 0,0.283483 -2.64583,-1.748139 -3.02381,-2.126115 -0.37798,-0.377975 -1.37016,-0.236235 -1.46466,0.236236 -0.0945,0.472469 0.61422,1.275668 0.70871,1.653646 0.0945,0.377976 0.23623,1.464657 1.13393,2.126115 0.89769,0.661458 0.94494,2.031622 2.17336,2.504093 1.22842,0.47247 7.03981,2.126115 7.41778,3.165549 0.37798,1.039435 10.72434,30.611276 10.72434,30.611276 z"
         id="path887"
         inkscape:connector-curvature="0"
         inkscape:export-xdpi="90"
         inkscape:export-ydpi="90" />
      <path
         style="fill:#4a270c;fill-opacity:0.52103559;stroke:none;stroke-width:0.26458332px;stroke-linecap:butt;stroke-linejoin:miter;stroke-opacity:1"
         d="m 104.5692,95.34514 c 0,0 1.00226,-1.269531 4.87767,-3.54132 3.87541,-2.271792 8.95352,0.267269 8.95352,0.267269 l 5.87994,3.875407 c 0,0 -3.87541,4.075864 -4.27631,4.075864 -0.40091,0 -10.82442,0.33408 -11.42578,0.26727 -0.60135,-0.0668 -4.00904,-4.94449 -4.00904,-4.94449 z"
         id="path889"
         inkscape:connector-curvature="0"
         clip-path="url(#clipPath906)"
         sodipodi:nodetypes="csccscc"
         transform="translate(27.214285,-0.75595239)"
         inkscape:export-xdpi="90"
         inkscape:export-ydpi="90" />
      <path
         style="fill:#623410;fill-opacity:1;stroke:none;stroke-width:0.26458332px;stroke-linecap:butt;stroke-linejoin:miter;stroke-opacity:1"
         d="m 124.50039,97.261887 c 3.20724,-2.672699 8.95353,-6.013567 14.29892,-5.479029 5.34539,0.53454 11.8935,0.133636 14.16529,8.552632 2.27179,8.41899 0.93544,13.76438 -1.20272,18.57523 -2.13815,4.81085 1.60363,10.82441 2.93997,11.22532 1.33635,0.4009 5.07812,1.46998 3.20724,2.93996 -1.87089,1.46998 -1.20272,2.93997 -7.08265,3.47451 -5.87992,0.53453 -12.6953,1.33634 -14.43255,1.20271 -1.73725,-0.13364 1.60362,-2.00452 0.80181,-3.20724 -0.80181,-1.20271 1.20271,-2.27179 -1.46998,-3.34086 -2.6727,-1.06908 -5.47903,-1.20272 -7.21628,-3.74178 -1.73726,-2.53906 -2.9741,-5.70255 -3.21033,-6.69474 -0.23624,-0.99219 0.23623,-2.12612 -0.23624,-2.97656 -0.47247,-0.85045 -2.03162,-2.88207 -2.12611,-3.63802 -0.0945,-0.75595 0.28348,-1.41741 -0.18899,-2.26786 -0.47247,-0.85045 -1.15826,-4.65035 -1.01651,-6.25675 0.14174,-1.6064 1.00255,-6.246211 2.76913,-8.367523 z"
         id="path877"
         inkscape:connector-curvature="0"
         sodipodi:nodetypes="csscccccccccccscc"
         inkscape:export-xdpi="90"
         inkscape:export-ydpi="90" />
      <g
         transform="translate(46.491073,5.2916666)"
         id="g921"
         inkscape:export-xdpi="90"
         inkscape:export-ydpi="90">
        <path
           style="fill:#ebb184;fill-opacity:1;stroke:none;stroke-width:0.26458332px;stroke-linecap:butt;stroke-linejoin:miter;stroke-opacity:1"
           d="m 67.563243,130.69048 c 0,0 -1.039434,-8.31548 -1.322916,-9.44941 -0.283483,-1.13393 -1.889882,-4.53571 -1.795389,-5.57515 0.0945,-1.03943 0.283483,-3.02381 0.18899,-4.63021 -0.09449,-1.60639 -2.740327,-9.63839 -4.15774,-13.134669 -1.41741,-3.496281 -3.63802,-7.465031 -3.63802,-8.929688 0,-1.464659 1.370166,-4.582961 1.464659,-5.622395 0.09449,-1.039435 -0.141743,-3.401785 -0.283483,-4.015997 -0.14174,-0.614212 -1.08668,-1.606399 -1.322916,-1.559153 -0.236236,0.04725 -0.330729,-1.795385 -1.511906,-1.795385 -1.181174,0 -1.133928,0.472469 -1.133928,0.472469 0,0 -0.04725,-1.700893 -1.464656,-1.606399 -1.417413,0.09449 -1.889882,0.94494 -1.889882,0.94494 0,0 -0.744141,-1.34654 -1.09554,-3.006092 -0.3514,-1.659551 0.115164,-5.120396 -1.337683,-4.836913 -1.133928,0.425222 -0.425223,4.890066 -0.425223,5.598771 0,0.708707 0.448849,6.59096 0.07087,6.779949 -0.377976,0.188987 -0.992187,0.14174 -0.992187,0.897692 0,0.755954 0,1.322917 -0.09449,2.220611 -0.09449,0.897694 -0.377975,1.27567 -0.09449,1.984375 0.283483,0.708705 2.362351,4.204986 2.740327,5.055431 0.377976,0.850447 0.522896,2.120405 0.990616,3.256301 0.467722,1.135893 1.937705,3.00678 2.405425,5.679477 0.467722,2.672695 2.004523,9.220795 2.004523,9.220795 l 2.991959,24.64416 4.959309,-0.5899 z"
           id="path869"
           inkscape:connector-curvature="0"
           sodipodi:nodetypes="cscccscscscccscscsscscscccc" />
        <path
           style="fill:#e69f68;fill-opacity:1;stroke:none;stroke-width:0.26458332px;stroke-linecap:butt;stroke-linejoin:miter;stroke-opacity:1"
           d="m 31.749383,123.80738 c 0,0 -1.870887,-0.26727 -1.670435,1.26953 0.200452,1.5368 0.935443,3.40769 1.5368,4.40995 0.601356,1.00226 1.536798,2.47224 1.670434,3.00678 0.133636,0.53454 2.33861,0.60136 2.33861,0.13363 0,-0.46772 -3.875409,-8.81989 -3.875409,-8.81989 z"
           id="path828"
           inkscape:connector-curvature="0" />
        <path
           style="opacity:1;fill:#ffffff;fill-opacity:1;stroke:none;stroke-width:0.26458332px;stroke-linecap:butt;stroke-linejoin:miter;stroke-opacity:1"
           d="m 53.799119,141.31353 c 0,0 0.734991,-1.06907 1.5368,-2.33861 0.801807,-1.26953 1.804069,-2.27179 1.937703,-2.80633 0.133635,-0.53453 0.334086,-1.60361 0.400904,-3.8754 0.06682,-2.2718 1.737252,-4.67722 4.34313,-4.40995 2.605879,0.26727 5.612659,1.60362 5.746295,3.14042 0.133636,1.5368 1.403165,5.94674 1.336347,7.21627 -0.06682,1.26953 0.383024,3.16382 0.258331,5.49073 -0.124695,2.32691 -0.5256,3.79689 -0.726051,5.26687 -0.200454,1.46998 -0.668176,2.47225 -0.668176,2.47225 L 53.932754,141.5808 Z"
           id="path842"
           inkscape:connector-curvature="0" />
        <path
           style="fill:#e69f68;fill-opacity:1;stroke:none;stroke-width:0.26458332px;stroke-linecap:butt;stroke-linejoin:miter;stroke-opacity:1"
           d="m 58.743604,123.74056 c 0,0 1.603619,-0.73499 1.737252,0.60136 0.133635,1.33634 -1.002261,2.93996 -1.336347,3.74177 -0.334087,0.80181 -0.601356,2.40543 -1.00226,3.14042 -0.400905,0.73499 -1.135896,1.40316 -2.204974,1.40316 -1.069078,0 2.806329,-8.88671 2.806329,-8.88671 z"
           id="path830"
           inkscape:connector-curvature="0" />
        <path
           style="opacity:1;fill:#eab082;fill-opacity:1;stroke:none;stroke-width:0.26458332px;stroke-linecap:butt;stroke-linejoin:miter;stroke-opacity:1"
           d="m 30.049107,152.99107 c 0,0 4.535713,-0.94494 6.614582,-3.59077 2.078871,-2.64584 3.401787,-10.20536 1.13393,-13.04018 -2.267858,-2.83482 -7.559524,-10.96131 -6.614584,-19.46578 0.944941,-8.50446 8.882441,-13.79613 14.174108,-13.98511 5.291666,-0.18899 9.638392,3.0238 11.528274,5.48065 1.889879,2.45685 3.212796,9.63839 2.645833,14.93006 -0.566965,5.29167 -3.590774,8.31548 -3.779763,9.82738 -0.188987,1.51191 -1.889882,2.64584 -1.889882,5.85863 0,3.2128 1.200747,9.93843 2.71265,5.96968 1.511906,-3.96875 9.911227,6.37221 9.911227,6.37221 0,0 1.928206,3.53311 -13.379828,4.85603 -15.308035,1.32291 -23.056547,-3.2128 -23.056547,-3.2128 z"
           id="path826"
           inkscape:connector-curvature="0"
           sodipodi:nodetypes="ccsscsscsscsc" />
        <path
           style="fill:#e39355;fill-opacity:1;stroke:none;stroke-width:0.26458332px;stroke-linecap:butt;stroke-linejoin:miter;stroke-opacity:1"
           d="m 24.867192,179.73353 c 0,0 5.479025,14.03165 6.147199,17.10525 0.668174,3.07359 2.405427,4.54358 2.405427,4.54358 v -23.25245 z"
           id="path875"
           inkscape:connector-curvature="0" />
        <path
           style="opacity:1;fill:#ffffff;fill-opacity:1;stroke:none;stroke-width:0.26458332px;stroke-linecap:butt;stroke-linejoin:miter;stroke-opacity:1"
           d="m 35.954984,149.82552 c 0,0 5.433409,1.46466 10.677829,-1.46466 5.244417,-2.92931 7.276041,-6.89806 7.276041,-7.32329 0,-0.42522 14.189184,4.81954 14.389635,6.75725 0.200453,1.9377 1.069078,11.22532 1.069078,16.16981 0,4.94448 0.267271,11.22531 1.069078,16.30344 0.801809,5.07812 5.078121,21.51519 5.211757,22.71791 0.133636,1.20271 -0.668173,2.53906 -10.289876,5.34539 -9.621705,2.80633 -28.196936,3.34087 -30.602361,3.74177 -2.405426,0.4009 -4.409948,-0.66818 -3.474504,-4.81085 0.935443,-4.14268 1.202713,-19.51068 0.668174,-23.65335 -0.534539,-4.14268 -0.668174,-5.87994 -0.668174,-5.87994 0,0 0.801808,3.34087 -0.935444,3.34087 -1.737252,0 -7.750816,0.93545 -9.354433,-1.87088 -1.603617,-2.80633 0.133635,-14.29892 0.133635,-15.7689 0,-1.46999 0.801809,-6.28084 1.469982,-7.34992 0.668174,-1.06907 4.751169,-1.90189 7.453706,-3.0891 2.702536,-1.18721 3.237075,-0.65267 3.905248,-1.85538 0.668174,-1.20271 1.33917,-1.78264 1.33917,-1.78264 z"
           id="path832"
           inkscape:connector-curvature="0" />
        <path
           style="fill:#ececec;fill-opacity:1;stroke:none;stroke-width:0.26458332px;stroke-linecap:butt;stroke-linejoin:miter;stroke-opacity:1"
           d="m 52.318009,127.21703 c 0,0 2.605879,3.67496 2.33861,5.7463 -0.267272,2.07133 -0.53454,3.60813 -2.004523,4.87766 -1.469983,1.26954 -1.403165,2.2718 -2.00452,2.73952 -0.601359,0.46772 -3.140417,-0.13364 -3.140417,-0.13364 l 0.200451,-3.00678 z"
           id="path846"
           inkscape:connector-curvature="0"
           clip-path="url(#clipPath863)"
           transform="translate(6.4255952,1.1339286)" />
        <path
           style="fill:#ffb600;fill-opacity:1;stroke:none;stroke-width:0.26458332px;stroke-linecap:butt;stroke-linejoin:miter;stroke-opacity:1"
           d="m 35.42716,146.47989 c -0.330729,0.48394 -1.873709,5.12351 -1.873709,5.12351 0.872916,0.32872 7.684,3.27405 14.03165,-0.46772 6.347653,-3.74177 9.287616,-7.95127 9.48807,-9.15398 0.200451,-1.20271 -3.140417,-3.60814 -3.140417,-3.60814 0,0 -1.870887,4.2095 -4.209497,6.01357 -2.338607,1.80407 -3.963379,3.06438 -7.383319,3.37427 -4.447947,0.40304 -6.582049,-1.76545 -6.912778,-1.28151 z"
           id="path867"
           inkscape:connector-curvature="0"
           sodipodi:nodetypes="zssccssz" />
        <path
           style="fill:#9a521a;fill-opacity:1;stroke:none;stroke-width:0.26458332px;stroke-linecap:butt;stroke-linejoin:miter;stroke-opacity:1"
           d="m 34.488896,108.63983 c 0,0 -3.207235,4.40995 -3.34087,7.48355 -0.133635,3.0736 0.06207,6.76002 0.57368,8.82939 0.984081,3.10881 4.036719,8.81039 5.172615,10.41401 1.135896,1.60362 2.120638,5.85721 10.003613,5.3051 7.882975,-0.55211 5.67599,-3.51425 8.705254,-7.97779 3.029264,-4.46354 3.875407,-10.69078 3.875407,-15.90254 0,-5.21175 -3.552786,-11.96506 -7.695462,-13.16777 -4.142677,-1.20271 -7.939804,-1.92624 -11.681578,-0.0554 -3.741772,1.87088 -5.612659,5.0714 -5.612659,5.0714 z"
           id="path871"
           inkscape:connector-curvature="0"
           sodipodi:nodetypes="csczzzssccc" />
        <path
           style="opacity:1;vector-effect:none;fill:#9a521a;fill-opacity:1;stroke:none;stroke-width:1.16499996;stroke-linecap:round;stroke-linejoin:bevel;stroke-miterlimit:2.29999995;stroke-dasharray:27.95999964, 27.95999964;stroke-dashoffset:0;stroke-opacity:1;paint-order:markers stroke fill"
           id="path873"
           sodipodi:type="arc"
           sodipodi:cx="42.239712"
           sodipodi:cy="103.56171"
           sodipodi:rx="8.6862593"
           sodipodi:ry="9.4880686"
           sodipodi:start="0.32175145"
           sodipodi:end="0.14707837"
           sodipodi:open="true"
           d="m 50.480218,106.56211 a 8.6862593,9.4880686 0 0 1 -10.624997,6.12317 8.6862593,9.4880686 0 0 1 -6.064203,-11.3274 8.6862593,9.4880686 0 0 1 10.095539,-7.112156 8.6862593,9.4880686 0 0 1 6.945632,10.706446" />
        <path
           style="fill:#864717;fill-opacity:1;stroke:none;stroke-width:0.26458332px;stroke-linecap:butt;stroke-linejoin:miter;stroke-opacity:1"
           d="m 34.488894,108.63978 c 0,0 3.378298,2.02615 7.253706,1.62525 3.875407,-0.40091 8.151719,-2.53906 9.220797,-4.27632 1.069078,-1.73725 3.875408,4.00905 -4.81085,7.75082 -8.68626,3.74177 -17.238884,-0.53454 -17.238884,-0.53454 z"
           id="path849"
           inkscape:connector-curvature="0"
           clip-path="url(#clipPath866)" />
      </g>
      <path
         d="m 65.521817,73.932634 a 9.6217022,9.6217022 0 0 1 -11.769228,6.209412 9.6217022,9.6217022 0 0 1 -6.71727,-11.48694 9.6217022,9.6217022 0 0 1 11.182751,-7.212322 9.6217022,9.6217022 0 0 1 7.693622,10.85724"
         sodipodi:open="true"
         sodipodi:end="0.14707837"
         sodipodi:start="0.32175145"
         sodipodi:ry="9.6217022"
         sodipodi:rx="9.6217022"
         sodipodi:cy="70.889977"
         sodipodi:cx="56.393871"
         sodipodi:type="arc"
         id="path938"
         style="opacity:1;vector-effect:none;fill:#ffb600;fill-opacity:1;stroke:none;stroke-width:1.16499996;stroke-linecap:round;stroke-linejoin:bevel;stroke-miterlimit:2.29999995;stroke-dasharray:27.95999964, 27.95999964;stroke-dashoffset:0;stroke-opacity:1;paint-order:markers stroke fill"
         inkscape:export-xdpi="90"
         inkscape:export-ydpi="90" />
      <path
         d="m 52.165381,131.84338 a 4.2763119,4.2763119 0 0 1 -5.230767,2.75974 4.2763119,4.2763119 0 0 1 -2.985454,-5.10531 4.2763119,4.2763119 0 0 1 4.970111,-3.20547 4.2763119,4.2763119 0 0 1 3.419388,4.82544"
         sodipodi:open="true"
         sodipodi:end="0.14707837"
         sodipodi:start="0.32175145"
         sodipodi:ry="4.2763119"
         sodipodi:rx="4.2763119"
         sodipodi:cy="130.49109"
         sodipodi:cx="48.108517"
         sodipodi:type="arc"
         id="path938-4"
         style="opacity:1;vector-effect:none;fill:#ffb600;fill-opacity:1;stroke:none;stroke-width:0.51777768;stroke-linecap:round;stroke-linejoin:bevel;stroke-miterlimit:2.29999995;stroke-dasharray:12.42666535, 12.42666535;stroke-dashoffset:0;stroke-opacity:1;paint-order:markers stroke fill"
         inkscape:export-xdpi="90"
         inkscape:export-ydpi="90" />
      <path
         d="m 56.013563,124.70876 a 6.1471987,6.1471987 0 0 1 -7.519229,3.96712 6.1471987,6.1471987 0 0 1 -4.291589,-7.33887 6.1471987,6.1471987 0 0 1 7.144535,-4.60788 6.1471987,6.1471987 0 0 1 4.91537,6.93657"
         sodipodi:open="true"
         sodipodi:end="0.14707837"
         sodipodi:start="0.32175145"
         sodipodi:ry="6.1471987"
         sodipodi:rx="6.1471987"
         sodipodi:cy="122.76484"
         sodipodi:cx="50.18182"
         sodipodi:type="arc"
         id="path938-4-3"
         style="opacity:1;vector-effect:none;fill:none;fill-opacity:1;stroke:#000000;stroke-width:0.74400002;stroke-linecap:round;stroke-linejoin:bevel;stroke-miterlimit:2.29999995;stroke-dasharray:none;stroke-dashoffset:0;stroke-opacity:1;paint-order:markers stroke fill"
         inkscape:export-xdpi="90"
         inkscape:export-ydpi="90" />
      <path
         style="fill:#211105;fill-opacity:1;stroke:none;stroke-width:0.26458332px;stroke-linecap:butt;stroke-linejoin:miter;stroke-opacity:1"
         d="m 120.43965,101.92595 c 0,0 2.05467,10.2118 7.81764,13.09621 5.76296,2.8844 5.35026,-2.16996 7.08264,-0.93545 1.73238,1.23451 2.19105,5.67604 2.67547,8.19005 0.48443,2.514 8.33325,2.86369 11.06425,2.39142 2.731,-0.47227 6.63958,-6.70606 6.63958,-6.70606 l 0.53454,-20.980658 -13.22985,-9.621702 -15.90253,1.737251 z"
         id="path870"
         inkscape:connector-curvature="0"
         clip-path="url(#clipPath887)"
         sodipodi:nodetypes="czzzzccccc"
         inkscape:export-xdpi="90"
         inkscape:export-ydpi="90" />
    </g>
  </g>
</svg>
