<?xml version="1.0" encoding="UTF-8" standalone="no"?>
<!-- Created with Inkscape (http://www.inkscape.org/) -->

<svg
   xmlns:dc="http://purl.org/dc/elements/1.1/"
   xmlns:cc="http://creativecommons.org/ns#"
   xmlns:rdf="http://www.w3.org/1999/02/22-rdf-syntax-ns#"
   xmlns:svg="http://www.w3.org/2000/svg"
   xmlns="http://www.w3.org/2000/svg"
   xmlns:sodipodi="http://sodipodi.sourceforge.net/DTD/sodipodi-0.dtd"
   xmlns:inkscape="http://www.inkscape.org/namespaces/inkscape"
   width="204.30278mm"
   height="179.3309mm"
   viewBox="0 0 204.30278 179.3309"
   version="1.1"
   id="svg961"
   inkscape:version="0.92.2 (5c3e80d, 2017-08-06)"
   sodipodi:docname="fille-livre2.svg">
  <defs
     id="defs955">
    <clipPath
       clipPathUnits="userSpaceOnUse"
       id="clipPath906-5">
      <path
         style="fill:#ffc797;fill-opacity:0.52103559;stroke:none;stroke-width:0.26458332px;stroke-linecap:butt;stroke-linejoin:miter;stroke-opacity:1"
         d="m 25.190153,118.06305 c 2.071339,-0.26727 5.011304,-0.66818 7.216278,-1.20271 2.204972,-0.53454 6.481286,-1.67044 8.619443,-2.27179 2.138156,-0.60136 4.81085,-1.80407 5.81311,-1.80407 1.002263,0 3.207234,1.06907 5.87993,0.66817 2.672697,-0.40091 4.810853,-2.07134 7.349911,-3.54132 2.539061,-1.46998 6.614922,-3.20724 8.018087,-3.87541 1.403165,-0.66817 4.677217,-2.40542 6.280835,-1.60361 1.603616,0.8018 5.412208,3.07359 6.280833,3.8754 0.868627,0.80181 3.474503,1.80407 4.677217,4.07586 1.202713,2.27179 4.209494,8.68626 4.744034,10.49033 0.534538,1.80407 -0.200453,1.1359 -1.469982,1.46998 -1.269532,0.33409 -1.80407,0.93545 -2.739512,-0.80181 -0.935445,-1.73725 -3.006783,-7.01582 -3.34087,-8.68626 -0.334087,-1.67043 0.668174,3.34087 0.801809,4.2095 0.133633,0.86863 0.668174,3.14042 1.603616,4.14268 0.935445,1.00226 3.140416,1.73725 2.204974,2.27179 -0.935442,0.53454 -4.009043,1.40316 -5.011304,0.26727 -1.00226,-1.1359 -2.53906,-3.94223 -3.006783,-4.54358 -0.46772,-0.60136 -1.536798,0.93544 -4.476763,2.07134 -2.939965,1.13589 -8.68626,2.40542 -13.430295,3.20723 -4.744032,0.80181 -4.610399,1.1359 -8.084902,1.06908 -3.474503,-0.0668 -6.949009,0.33408 -10.423512,1.73725 -3.474503,1.40316 -10.089425,3.60814 -11.893494,4.34313 -1.80407,0.73499 -4.34313,1.46998 -5.87993,1.5368 -1.5368,0.0668 -3.741773,-9.75534 -3.741773,-9.75534 z"
         id="path908-1"
         inkscape:connector-curvature="0" />
    </clipPath>
  </defs>
  <sodipodi:namedview
     id="base"
     pagecolor="#ffffff"
     bordercolor="#666666"
     borderopacity="1.0"
     inkscape:pageopacity="0.0"
     inkscape:pageshadow="2"
     inkscape:zoom="0.35"
     inkscape:cx="-232.52241"
     inkscape:cy="306.95596"
     inkscape:document-units="mm"
     inkscape:current-layer="layer1"
     showgrid="false"
     inkscape:window-width="1920"
     inkscape:window-height="1001"
     inkscape:window-x="-9"
     inkscape:window-y="-9"
     inkscape:window-maximized="1" />
  <metadata
     id="metadata958">
    <rdf:RDF>
      <cc:Work
         rdf:about="">
        <dc:format>image/svg+xml</dc:format>
        <dc:type
           rdf:resource="http://purl.org/dc/dcmitype/StillImage" />
        <dc:title></dc:title>
      </cc:Work>
    </rdf:RDF>
  </metadata>
  <g
     inkscape:label="Calque 1"
     inkscape:groupmode="layer"
     id="layer1"
     transform="translate(-0.66738886,-50.717862)">
    <g
       id="g1003"
       transform="matrix(0.85482126,0,0,0.85482126,-2.4303556,-150.28461)">
      <g
         id="g1094"
         inkscape:export-xdpi="90"
         inkscape:export-ydpi="90">
        <g
           id="g1267"
           inkscape:export-xdpi="90"
           inkscape:export-ydpi="90">
          <rect
             style="opacity:1;vector-effect:none;fill:#f3f3f3;fill-opacity:1;stroke:none;stroke-width:0.62318003;stroke-linecap:round;stroke-linejoin:miter;stroke-miterlimit:4;stroke-dasharray:none;stroke-dashoffset:0;stroke-opacity:1;paint-order:markers stroke fill"
             id="rect1022"
             width="94.173599"
             height="164.30287"
             x="249.68364"
             y="134.73726"
             ry="9.5361452"
             rx="9.5361452"
             transform="rotate(29.26125)" />
          <path
             style="fill:none;stroke:#000000;stroke-width:1.16471982;stroke-linecap:round;stroke-linejoin:miter;stroke-miterlimit:2.29999995;stroke-dasharray:27.95327443, 27.95327443;stroke-dashoffset:0;stroke-opacity:1"
             d="M 182.18396,401.34139 242.03793,296.59694"
             id="path1064"
             inkscape:connector-curvature="0" />
          <path
             inkscape:export-ydpi="90"
             inkscape:export-xdpi="90"
             sodipodi:nodetypes="csscccccc"
             inkscape:connector-curvature="0"
             id="path881-9"
             d="m 22.093804,393.91453 c 0,0 17.95386,-7.74852 21.54464,-8.88245 3.59077,-1.13393 10.01637,-5.85862 15.11905,-7.93749 5.10267,-2.07887 21.16666,-4.91369 21.16666,-4.91369 l 6.4256,7.9375 6.786876,7.47567 c 0,0 -6.857296,4.80299 -11.393006,6.31489 -4.53571,1.5119 -13.53673,2.72412 -13.53673,2.72412 z"
             style="fill:#be8700;fill-opacity:1;stroke:none;stroke-width:0.26458332px;stroke-linecap:butt;stroke-linejoin:miter;stroke-opacity:1" />
          <path
             inkscape:export-ydpi="90"
             inkscape:export-xdpi="90"
             inkscape:connector-curvature="0"
             id="path914-4"
             d="m 6.2301435,437.84473 56.9284005,2.00452 c 0,0 1.33635,-9.35443 -8.95353,-10.69078 -10.28987,-1.33635 -29.9342,0.13363 -29.9342,0.13363 z"
             style="fill:#f2e8be;fill-opacity:1;stroke:none;stroke-width:0.26458332px;stroke-linecap:butt;stroke-linejoin:miter;stroke-opacity:1" />
          <path
             inkscape:export-ydpi="90"
             inkscape:export-xdpi="90"
             sodipodi:nodetypes="csccssc"
             inkscape:connector-curvature="0"
             id="path885-9"
             d="m 131.7069,378.41751 c 0,0 16.25297,-4.9137 19.08779,3.77975 2.83482,8.69346 11.52827,20.03275 4.91369,19.27679 -6.61458,-0.75595 -18.22113,2.87511 -20.3,2.68613 -2.07887,-0.18899 -24.99459,2.83713 -27.82941,-1.32061 -2.83482,-4.15774 15.43447,-25.17802 15.43447,-30.65867 0,-5.48066 8.69346,6.23661 8.69346,6.23661 z"
             style="fill:#be8700;fill-opacity:1;stroke:none;stroke-width:0.26458332px;stroke-linecap:butt;stroke-linejoin:miter;stroke-opacity:1" />
          <path
             inkscape:export-ydpi="90"
             inkscape:export-xdpi="90"
             sodipodi:nodetypes="cssssccscccscsc"
             inkscape:connector-curvature="0"
             id="path883-6"
             d="m 132.84083,352.52614 c 0,0 17.19791,4.53571 25.70237,9.26041 8.50447,4.7247 13.04018,12.09524 19.65476,27.59226 6.61459,15.49703 11.33929,21.73364 9.82739,32.88393 -1.51191,11.1503 -6.4256,11.90625 -18.14286,12.09524 -11.71726,0.18899 -39.6875,-6.99256 -42.14434,-7.18154 -2.45685,-0.18899 -15.68601,-7.37054 -15.68601,-7.37054 0,0 2.07886,-4.15774 2.07886,-6.4256 0,-2.26785 -1.13392,-5.29166 -1.5119,-5.85863 -0.37798,-0.56696 1.13393,-5.66964 2.83482,-6.04762 1.7009,-0.37797 11.90625,1.88989 14.93006,1.13393 3.02381,-0.75595 10.58333,-3.40179 13.22916,-3.40179 2.64584,0 7.37054,-0.18898 8.12649,-1.88988 0.37798,-0.85044 -17.14078,-13.95301 -29.09256,-14.97686 -13.51265,-1.15754 10.19376,-29.81331 10.19376,-29.81331 z"
             style="fill:#ffb600;fill-opacity:1;stroke:none;stroke-width:0.26458332px;stroke-linecap:butt;stroke-linejoin:miter;stroke-opacity:1" />
          <path
             inkscape:export-ydpi="90"
             inkscape:export-xdpi="90"
             sodipodi:nodetypes="csccccccc"
             inkscape:connector-curvature="0"
             id="path834-6"
             d="m 67.261954,355.35264 c 0,0 8.50446,26.24438 14.74107,31.71196 6.23661,5.46758 28.726196,5.90498 28.726196,5.90498 l 19.84375,-4.81146 5.10268,-24.27606 -8.12649,-28.66914 -9.82738,-11.79095 -30.616076,8.96683 z"
             style="fill:#000000;fill-opacity:0.93527509;stroke:none;stroke-width:0.28462484px;stroke-linecap:butt;stroke-linejoin:miter;stroke-opacity:1" />
          <path
             inkscape:export-ydpi="90"
             inkscape:export-xdpi="90"
             inkscape:connector-curvature="0"
             id="path830-3"
             d="m 82.569994,364.05441 c 0,0 -5.66965,-0.75595 -6.80358,-2.07887 -1.13392,-1.32292 -1.88988,-4.91369 -1.88988,-7.18155 0,-2.26785 1.51191,-5.66964 2.83482,-5.85863 1.32292,-0.18899 5.85864,15.11905 5.85864,15.11905 z"
             style="fill:#edb88d;fill-opacity:1;stroke:none;stroke-width:0.26458332px;stroke-linecap:butt;stroke-linejoin:miter;stroke-opacity:1" />
          <path
             inkscape:export-ydpi="90"
             inkscape:export-xdpi="90"
             sodipodi:nodetypes="csscccsccc"
             inkscape:connector-curvature="0"
             id="path916-1"
             d="m 64.093984,431.5639 c 2.13817,1.46998 12.82895,0.26727 19.37704,1.20271 6.548106,0.93544 36.749566,9.88897 39.154996,10.69078 2.40543,0.80181 4.54358,1.46998 4.54358,1.46998 l 12.16076,-14.69982 -6.949,-2.13816 c 0,0 -7.75082,5.21176 -11.09169,3.60814 -3.34087,-1.60362 -21.64884,-14.29892 -29.53328,-14.43256 -7.884456,-0.13363 -21.114286,-0.66817 -23.519716,3.34087 -2.40542,4.00905 -4.14269,10.95806 -4.14269,10.95806 z"
             style="fill:#f2e8be;fill-opacity:1;stroke:none;stroke-width:0.26458332px;stroke-linecap:butt;stroke-linejoin:miter;stroke-opacity:1" />
          <path
             inkscape:export-ydpi="90"
             inkscape:export-xdpi="90"
             sodipodi:nodetypes="cssscsscsccc"
             inkscape:connector-curvature="0"
             id="path826-6"
             d="m 78.223264,353.47108 c 0,0 0.75595,4.53571 3.40179,9.63839 2.64583,5.10268 8.504456,11.90625 11.717256,13.98512 3.21279,2.07887 12.66221,6.4256 14.55209,6.4256 1.88988,0 7.9375,-0.56697 9.82738,-1.8899 1.88988,-1.3229 7.18155,-8.88243 9.4494,-17.38689 2.26786,-8.50447 3.40179,-17.5759 2.83482,-19.84375 -0.56696,-2.26786 -2.64583,-5.29167 -2.83482,-6.99256 -0.18898,-1.7009 -1.70089,-9.44941 -3.59077,-13.04018 -1.88988,-3.59077 -5.10268,-15.875 -15.875,-17.76488 -13.84366,-5.06034 -30.153026,-1.51652 -33.639886,11.33928 -2.26786,9.07143 4.15774,35.52977 4.15774,35.52977 z"
             style="fill:#ffc797;fill-opacity:1;stroke:none;stroke-width:0.26458332px;stroke-linecap:butt;stroke-linejoin:miter;stroke-opacity:1" />
          <path
             inkscape:export-ydpi="90"
             inkscape:export-xdpi="90"
             sodipodi:nodetypes="ccscsccccccc"
             inkscape:connector-curvature="0"
             id="path910-4"
             d="m 115.84707,401.85472 c 0,0 -5.61266,-0.20045 -7.61718,0.13363 -2.00452,0.33409 -9.02035,1.67044 -10.3567,1.93771 -1.33635,0.26727 -6.80391,-0.2491 -8.80843,0.15181 -2.004516,0.4009 -10.638206,3.18431 -12.909996,4.45384 -2.27179,1.26953 -4.10354,2.76997 -5.37307,5.37584 -1.26953,2.60588 9.51853,2.64699 9.51853,2.64699 0,0 15.234356,-4.27631 16.236616,-4.20949 1.00226,0.0668 4.54358,0.26727 6.21402,1.13589 1.67044,0.86863 8.8199,4.87767 10.3567,5.27858 1.5368,0.4009 4.00904,-6.94901 4.00904,-6.94901 z"
             style="fill:#f3bd90;fill-opacity:1;stroke:none;stroke-width:0.26458332px;stroke-linecap:butt;stroke-linejoin:miter;stroke-opacity:1" />
          <path
             inkscape:export-ydpi="90"
             inkscape:export-xdpi="90"
             sodipodi:nodetypes="czzcccccccccc"
             inkscape:connector-curvature="0"
             id="path941-7"
             d="m 70.947224,426.137 c 0,0 12.09524,-2.36235 15.96949,-1.88988 3.874256,0.47247 20.696996,8.11182 22.773066,10.11086 2.07608,1.99904 7.94304,4.63366 11.92165,3.89423 1.22842,-0.37797 8.67806,-2.57131 10.75693,-5.21715 2.07886,-2.64583 3.49627,-3.59077 3.49627,-3.59077 l -10.67782,-4.91369 -15.59152,-3.68527 -5.66964,2.55134 -8.69347,-2.45684 -11.150286,-2.17337 -9.63839,3.3073 z"
             style="fill:#ecdd9f;fill-opacity:1;stroke:none;stroke-width:0.26458332px;stroke-linecap:butt;stroke-linejoin:miter;stroke-opacity:1" />
          <path
             inkscape:export-ydpi="90"
             inkscape:export-xdpi="90"
             sodipodi:nodetypes="cccsccccccsccczcczzc"
             inkscape:connector-curvature="0"
             id="path912-5"
             d="m 10.907344,427.28758 -4.9444805,10.69078 c 0,0 31.4041705,-4.81085 38.0859105,-4.14267 6.68174,0.66817 11.49259,2.27179 14.03166,3.74177 2.53906,1.46998 5.7463,4.40995 5.7463,4.40995 l 6.28083,-6.81538 -3.47452,-4.00904 c 0,0 8.15172,-11.22532 18.30798,-10.55715 10.156226,0.66818 21.782456,6.1472 23.786976,8.01809 2.00453,1.87089 10.02261,5.7463 10.02261,5.7463 0,0 6.68174,2.13815 10.42351,-0.80181 3.74178,-2.93997 6.54811,-6.1472 6.54811,-6.1472 l -15.63527,-7.61718 -21.76348,-8.42571 c -7.23162,-2.58668 -14.902196,-1.82533 -20.002136,-0.27676 -5.09994,1.54856 -10.48558,3.49071 -11.95556,6.02977 -1.46998,2.53906 -9.75533,1.20271 -9.75533,1.20271 0,0 -10.2546,-1.0383 -16.1698,-0.66817 -5.91521,0.37013 -14.17629,1.35606 -19.10978,3.20723 -4.93349,1.85117 -10.42353,6.41447 -10.42353,6.41447 z"
             style="fill:#fffae5;fill-opacity:1;stroke:none;stroke-width:0.26458332px;stroke-linecap:butt;stroke-linejoin:miter;stroke-opacity:1" />
          <path
             inkscape:export-ydpi="90"
             inkscape:export-xdpi="90"
             sodipodi:nodetypes="ccsccccc"
             inkscape:connector-curvature="0"
             id="path879-3"
             d="m 44.299904,414.04176 c 0,0 -3.11831,6.23661 -0.94494,6.80357 2.17336,0.56697 15.02455,-1.03943 20.5997,-2.92931 5.57515,-1.88988 10.01637,-7.74851 10.01637,-7.74851 l -10.39435,-1.32292 -13.70163,-2.83482 -5.19718,4.06324 z"
             style="fill:#be8700;fill-opacity:1;stroke:none;stroke-width:0.26458332px;stroke-linecap:butt;stroke-linejoin:miter;stroke-opacity:1" />
          <path
             inkscape:export-ydpi="90"
             inkscape:export-xdpi="90"
             sodipodi:nodetypes="cccscssccsccccccscccsccsccc"
             inkscape:connector-curvature="0"
             id="path887-3"
             d="m 68.072644,394.70526 c 2.07134,-0.26727 5.0113,-0.66818 7.21628,-1.20271 2.20497,-0.53454 6.48128,-1.67044 8.61944,-2.27179 2.13816,-0.60136 4.810846,-1.80407 5.813106,-1.80407 1.00226,0 3.20723,1.06907 5.87993,0.66817 2.67269,-0.40091 4.81085,-2.07134 7.34991,-3.54132 2.53907,-1.46998 6.61493,-3.20725 8.01809,-3.87541 1.40317,-0.66817 4.67722,-2.40542 6.28084,-1.60361 1.60362,0.80179 5.41221,3.07359 6.28083,3.8754 0.86863,0.80181 3.47451,1.80407 4.67722,4.07586 1.20271,2.27179 4.58747,9.34772 5.12201,11.15179 0.53454,1.80407 0.5555,1.51388 -0.71403,1.84796 -1.26953,0.33409 -2.56002,0.55747 -3.49546,-1.17979 -0.93545,-1.73725 -3.38476,-7.67728 -3.71885,-9.34773 -0.33409,-1.67042 0.66817,3.34088 0.80181,4.20951 0.13363,0.86863 0.66817,3.14042 1.60361,4.14268 0.93545,1.00226 3.14042,1.73725 2.20498,2.27179 -0.93544,0.53454 -4.00904,1.40316 -5.01131,0.26727 -1.00226,-1.1359 -2.53906,-3.94223 -3.00678,-4.54358 -0.46772,-0.60137 -1.5368,0.93544 -4.47676,2.07134 -2.93997,1.13589 -8.68626,2.40542 -13.4303,3.20723 -4.74404,0.80181 -4.61041,1.1359 -8.08491,1.06908 -3.4745,-0.0668 -6.949,0.33408 -10.423506,1.73725 -3.4745,1.40316 -10.08942,3.60814 -11.89349,4.34313 -1.80407,0.73499 -4.34313,1.46998 -5.87993,1.5368 -1.5368,0.0668 -3.74177,-9.75534 -3.74177,-9.75534 z"
             style="fill:#ffc797;fill-opacity:1;stroke:none;stroke-width:0.26458332px;stroke-linecap:butt;stroke-linejoin:miter;stroke-opacity:1" />
          <path
             inkscape:export-ydpi="90"
             inkscape:export-xdpi="90"
             sodipodi:nodetypes="cssscscccc"
             inkscape:connector-curvature="0"
             id="path877-1"
             d="m 69.340824,394.29251 c 0,0 -1.6064,1.51189 -2.17336,3.87425 -0.56697,2.36235 -1.98438,4.91369 -1.13393,8.69345 0.85044,3.77977 3.96875,3.87426 5.76413,3.87426 1.79539,0 -4.34672,3.68527 -7.08705,4.34673 -2.74033,0.66145 -10.96131,1.41741 -13.70164,1.41741 -2.74032,0 -7.37053,0.0945 -7.37053,0.0945 l 3.59077,-13.13468 10.01637,-7.84301 z"
             style="fill:#0d290f;fill-opacity:1;stroke:none;stroke-width:0.26458332px;stroke-linecap:butt;stroke-linejoin:miter;stroke-opacity:1" />
          <path
             inkscape:export-ydpi="90"
             inkscape:export-xdpi="90"
             sodipodi:nodetypes="cscccsscccczc"
             inkscape:connector-curvature="0"
             id="path875-8"
             d="m 20.014934,394.10351 c -4.53572,2.83482 -10.3943505,4.15775 -14.9300605,15.30804 -4.53571996,11.1503 2.64583,15.11905 5.8586305,16.63096 3.2128,1.5119 15.11905,-2.26786 20.5997,-2.07887 5.48065,0.18898 9.63839,-1.32292 14.74107,-1.88988 5.10268,-0.56697 25.51339,-5.19718 26.83631,-10.86682 0.10948,-0.46922 -4.20498,3.92151 -9.75651,5.38616 -5.55152,1.46466 -16.51283,4.63021 -16.89081,3.77976 -0.75595,-1.70089 -1.32292,-4.91369 3.2128,-9.4494 4.53571,-4.53572 11.71726,-12.28423 14.74107,-14.55209 3.02381,-2.26786 8.78794,-3.49627 8.78794,-3.49627 0,0 -16.98013,-1.3504 -24.75743,-1.32293 -7.77731,0.0275 -22.36888,0.007 -28.44271,2.55134 z"
             style="fill:#ffb600;fill-opacity:1;stroke:none;stroke-width:0.26458332px;stroke-linecap:butt;stroke-linejoin:miter;stroke-opacity:1" />
          <path
             inkscape:export-ydpi="90"
             inkscape:export-xdpi="90"
             sodipodi:nodetypes="csscssczccssssccsczcc"
             inkscape:connector-curvature="0"
             id="path832-9"
             d="m 97.68903,321.53209 c 0,0 -10.961296,2.26786 -13.985116,7.37053 -3.02381,5.10268 -5.29166,17.19792 -5.10267,20.22173 0.18899,3.02381 -2.83483,-0.75595 -2.83483,-0.75595 0,0 -2.655552,4.42833 -1.521622,10.28696 1.13393,5.85863 1.521622,11.63566 3.789482,15.79339 2.26786,4.15774 5.85863,9.07144 10.01637,10.58333 -5.16398,-1.77058 9.202286,6.64137 -8.88244,5.85864 -18.084724,-0.78273 -27.451436,-5.34649 -23.62351,-18.70982 1.378215,-10.09177 0.944428,-20.8133 2.64583,-28.91518 1.32292,-6.4256 3.77976,-19.0878 8.12649,-26.08036 4.34673,-6.99256 10.20536,-11.33928 14.74107,-13.04017 4.53572,-1.7009 17.386896,-3.59078 22.111596,-2.45685 4.72472,1.13393 19.84376,10.77232 24.94644,21.73363 5.10268,10.96131 6.61459,19.27678 7.74852,23.05655 2.40275,12.96361 4.30142,19.34309 2.83482,25.13541 -1.46238,4.94934 -6.23661,19.84376 -7.74852,6.23661 -1.5119,-13.60714 -0.94494,-16.44196 -2.64583,-23.05655 -2.50125,-12.33573 -11.19491,-27.87502 -20.03274,-30.80506 -8.83783,-2.93004 -11.52828,-7.55952 -12.28423,-8.12648 -0.75596,-0.56697 1.70089,5.66964 1.70089,5.66964 z"
             style="fill:#2b2b2b;fill-opacity:0.99029122;stroke:none;stroke-width:0.26458332px;stroke-linecap:butt;stroke-linejoin:miter;stroke-opacity:1" />
          <path
             inkscape:export-ydpi="90"
             inkscape:export-xdpi="90"
             transform="translate(42.882494,276.64221)"
             clip-path="url(#clipPath906-5)"
             inkscape:connector-curvature="0"
             id="path889-4"
             d="m 66.34966,120.60211 c 0,0 3.942225,-4.94449 5.412208,-5.7463 1.469982,-0.8018 5.011303,0 5.813112,1.46999 0.801807,1.46998 0.935443,2.53906 1.269529,3.80859 0.334087,1.26953 -1.135895,2.73951 -1.135895,2.73951 l -7.216278,2.6727 c 0,0 1.469983,-1.26953 -0.534538,-3.34087 -2.004523,-2.07134 -3.608138,-1.60362 -3.608138,-1.60362 z"
             style="fill:#f3bd90;fill-opacity:1;stroke:none;stroke-width:0.26458332px;stroke-linecap:butt;stroke-linejoin:miter;stroke-opacity:1" />
          <path
             inkscape:export-ydpi="90"
             inkscape:export-xdpi="90"
             sodipodi:nodetypes="csssc"
             inkscape:connector-curvature="0"
             id="path939-1"
             d="m 72.371994,421.80665 c 0,0 9.53163,-6.15685 15.48966,-6.91444 4.222436,-0.5369 11.763116,5.42727 14.692426,6.84468 2.92933,1.41741 -12.32117,-3.90091 -16.809616,-3.81612 -5.16387,0.0976 -13.37247,3.88588 -13.37247,3.88588 z"
             style="fill:#f2e8be;fill-opacity:1;stroke:none;stroke-width:0.26458332px;stroke-linecap:butt;stroke-linejoin:miter;stroke-opacity:1" />
          <path
             inkscape:export-ydpi="90"
             inkscape:export-xdpi="90"
             sodipodi:nodetypes="ccsc"
             inkscape:connector-curvature="0"
             id="path943-9"
             d="m 56.112334,426.91124 c 0,0 7.38651,4.59361 8.05468,5.52906 -1.3162,-2.65534 0.44119,-6.93326 1.2525,-8.35971 0.70428,-1.23825 -9.30718,2.83065 -9.30718,2.83065 z"
             style="fill:#f2e8be;fill-opacity:1;stroke:none;stroke-width:0.26458332px;stroke-linecap:butt;stroke-linejoin:miter;stroke-opacity:1" />
          <path
             inkscape:export-ydpi="90"
             inkscape:export-xdpi="90"
             inkscape:connector-curvature="0"
             id="path945-6"
             d="m 71.814414,417.1559 c 0,0 6.28084,-3.87541 9.6217,-4.6104 3.34087,-0.73499 6.68174,0.20045 6.949006,0.20045 0.26727,0 -5.278566,-0.4009 -8.819886,1.40317 -3.54132,1.80407 -7.75082,3.00678 -7.75082,3.00678 z"
             style="fill:#f2e8be;fill-opacity:1;stroke:none;stroke-width:0.26458332px;stroke-linecap:butt;stroke-linejoin:miter;stroke-opacity:1" />
          <path
             style="opacity:1;vector-effect:none;fill:#f3f3f3;fill-opacity:1;stroke:none;stroke-width:0.66484004;stroke-linecap:round;stroke-linejoin:miter;stroke-miterlimit:4;stroke-dasharray:none;stroke-dashoffset:0;stroke-opacity:1;paint-order:markers stroke fill"
             id="path1024"
             sodipodi:type="arc"
             sodipodi:cx="59.26955"
             sodipodi:cy="259.1882"
             sodipodi:rx="21.91083"
             sodipodi:ry="21.91083"
             sodipodi:start="0.32175145"
             sodipodi:end="0.14707837"
             sodipodi:open="true"
             d="m 80.055982,266.11703 a 21.91083,21.91083 0 0 1 -26.801239,14.14026 21.91083,21.91083 0 0 1 -15.29677,-26.1584 21.91083,21.91083 0 0 1 25.465696,-16.42412 21.91083,21.91083 0 0 1 17.52015,24.72443" />
          <path
             style="opacity:1;vector-effect:none;fill:#f3f3f3;fill-opacity:1;stroke:none;stroke-width:0.66484004;stroke-linecap:round;stroke-linejoin:miter;stroke-miterlimit:4;stroke-dasharray:none;stroke-dashoffset:0;stroke-opacity:1;paint-order:markers stroke fill"
             id="path1026"
             sodipodi:type="arc"
             sodipodi:cx="213.36777"
             sodipodi:cy="366.63617"
             sodipodi:rx="10.68821"
             sodipodi:ry="10.68821"
             sodipodi:start="0.32175145"
             sodipodi:end="0.14707837"
             sodipodi:open="true"
             d="m 223.50749,370.01609 a 10.68821,10.68821 0 0 1 -13.07377,6.89768 10.68821,10.68821 0 0 1 -7.46184,-12.76019 10.68821,10.68821 0 0 1 12.42229,-8.01177 10.68821,10.68821 0 0 1 8.54641,12.0607" />
          <path
             style="opacity:1;vector-effect:none;fill:#ffb600;fill-opacity:1;stroke:none;stroke-width:0.66484004;stroke-linecap:round;stroke-linejoin:miter;stroke-miterlimit:4;stroke-dasharray:none;stroke-dashoffset:0;stroke-opacity:1;paint-order:markers stroke fill"
             id="path1028"
             sodipodi:type="arc"
             sodipodi:cx="40.297981"
             sodipodi:cy="305.41473"
             sodipodi:rx="10.421004"
             sodipodi:ry="10.421004"
             sodipodi:start="0.32175145"
             sodipodi:end="0.14707837"
             sodipodi:open="true"
             d="m 50.184211,308.71015 a 10.421004,10.421004 0 0 1 -12.746931,6.72525 10.421004,10.421004 0 0 1 -7.275293,-12.44119 10.421004,10.421004 0 0 1 12.111734,-7.81147 10.421004,10.421004 0 0 1 8.332754,11.75918" />
          <path
             style="opacity:1;vector-effect:none;fill:#ffb600;fill-opacity:1;stroke:none;stroke-width:0.66484004;stroke-linecap:round;stroke-linejoin:miter;stroke-miterlimit:4;stroke-dasharray:none;stroke-dashoffset:0;stroke-opacity:1;paint-order:markers stroke fill"
             id="path1030"
             sodipodi:type="arc"
             sodipodi:cx="147.71448"
             sodipodi:cy="251.43929"
             sodipodi:rx="16.299519"
             sodipodi:ry="16.299519"
             sodipodi:start="0.32175145"
             sodipodi:end="0.14707837"
             sodipodi:open="true"
             d="m 163.17755,256.59366 a 16.299519,16.299519 0 0 1 -19.9375,10.51897 16.299519,16.299519 0 0 1 -11.37931,-19.4593 16.299519,16.299519 0 0 1 18.944,-12.21794 16.299519,16.299519 0 0 1 13.03328,18.39257" />
          <path
             style="opacity:1;vector-effect:none;fill:none;fill-opacity:1;stroke:#000000;stroke-width:1.26469576;stroke-linecap:round;stroke-linejoin:bevel;stroke-miterlimit:4;stroke-dasharray:none;stroke-dashoffset:0;stroke-opacity:1;paint-order:markers stroke fill"
             id="path1026-3"
             sodipodi:type="arc"
             sodipodi:cx="31.179234"
             sodipodi:cy="290.55078"
             sodipodi:rx="10.68821"
             sodipodi:ry="10.68821"
             sodipodi:start="0.32175145"
             sodipodi:end="0.14707837"
             sodipodi:open="true"
             d="m 41.318956,293.9307 a 10.68821,10.68821 0 0 1 -13.073775,6.89769 10.68821,10.68821 0 0 1 -7.461839,-12.7602 10.68821,10.68821 0 0 1 12.422291,-8.01177 10.68821,10.68821 0 0 1 8.546414,12.0607" />
          <path
             style="opacity:1;vector-effect:none;fill:none;fill-opacity:1;stroke:#000000;stroke-width:0.66773158;stroke-linecap:round;stroke-linejoin:bevel;stroke-miterlimit:4;stroke-dasharray:none;stroke-dashoffset:0;stroke-opacity:1;paint-order:markers stroke fill"
             id="path1026-3-5"
             sodipodi:type="arc"
             sodipodi:cx="129.27744"
             sodipodi:cy="272.01395"
             sodipodi:rx="5.6431398"
             sodipodi:ry="5.6431398"
             sodipodi:start="0.32175145"
             sodipodi:end="0.14707837"
             sodipodi:open="true"
             d="m 134.63099,273.79847 a 5.6431398,5.6431398 0 0 1 -6.90267,3.64183 5.6431398,5.6431398 0 0 1 -3.93969,-6.73711 5.6431398,5.6431398 0 0 1 6.5587,-4.23003 5.6431398,5.6431398 0 0 1 4.51232,6.36778" />
          <path
             style="opacity:1;vector-effect:none;fill:none;fill-opacity:1;stroke:#000000;stroke-width:0.35114717;stroke-linecap:round;stroke-linejoin:bevel;stroke-miterlimit:4;stroke-dasharray:none;stroke-dashoffset:0;stroke-opacity:1;paint-order:markers stroke fill"
             id="path1026-3-5-4"
             sodipodi:type="arc"
             sodipodi:cx="233.34795"
             sodipodi:cy="311.52338"
             sodipodi:rx="2.9676185"
             sodipodi:ry="2.9676185"
             sodipodi:start="0.32175145"
             sodipodi:end="0.14707837"
             sodipodi:open="true"
             d="m 236.16328,312.46182 a 2.9676185,2.9676185 0 0 1 -3.62998,1.91517 2.9676185,2.9676185 0 0 1 -2.07181,-3.54291 2.9676185,2.9676185 0 0 1 3.44909,-2.2245 2.9676185,2.9676185 0 0 1 2.37294,3.3487" />
          <path
             style="opacity:1;vector-effect:none;fill:none;fill-opacity:1;stroke:#000000;stroke-width:0.66773158;stroke-linecap:round;stroke-linejoin:bevel;stroke-miterlimit:4;stroke-dasharray:none;stroke-dashoffset:0;stroke-opacity:1;paint-order:markers stroke fill"
             id="path1026-3-5-8"
             sodipodi:type="arc"
             sodipodi:cx="203.68398"
             sodipodi:cy="364.23837"
             sodipodi:rx="5.6431398"
             sodipodi:ry="5.6431398"
             sodipodi:start="0.32175145"
             sodipodi:end="0.14707837"
             sodipodi:open="true"
             d="m 209.03753,366.0229 a 5.6431398,5.6431398 0 0 1 -6.90267,3.64182 5.6431398,5.6431398 0 0 1 -3.93969,-6.7371 5.6431398,5.6431398 0 0 1 6.5587,-4.23004 5.6431398,5.6431398 0 0 1 4.51232,6.36779" />
        </g>
      </g>
    </g>
  </g>
</svg>
