<?xml version="1.0" encoding="UTF-8" standalone="no"?>
<!-- Created with Inkscape (http://www.inkscape.org/) -->

<svg
   xmlns:dc="http://purl.org/dc/elements/1.1/"
   xmlns:cc="http://creativecommons.org/ns#"
   xmlns:rdf="http://www.w3.org/1999/02/22-rdf-syntax-ns#"
   xmlns:svg="http://www.w3.org/2000/svg"
   xmlns="http://www.w3.org/2000/svg"
   xmlns:sodipodi="http://sodipodi.sourceforge.net/DTD/sodipodi-0.dtd"
   xmlns:inkscape="http://www.inkscape.org/namespaces/inkscape"
   width="199.83716mm"
   height="214.80856mm"
   viewBox="0 0 199.83716 214.80856"
   version="1.1"
   id="svg8"
   inkscape:version="0.92.2 (5c3e80d, 2017-08-06)"
   sodipodi:docname="boy-sheet.svg">
  <defs
     id="defs2">
    <clipPath
       clipPathUnits="userSpaceOnUse"
       id="clipPath886">
      <path
         style="fill:#000000;fill-opacity:1;stroke:none;stroke-width:0.26458332px;stroke-linecap:butt;stroke-linejoin:miter;stroke-opacity:1"
         d="m -40.632438,219.89285 c 0,0 -3.968753,7.55953 -2.83482,10.39435 1.133927,2.83482 14.552081,5.85863 14.552081,5.85863 0,0 -3.779761,5.29167 -4.535713,8.12649 -0.755954,2.83482 -2.834825,3.2128 -3.779763,8.50446 -0.944941,5.29167 -1.700893,15.30805 -3.401785,17.19791 -1.700893,1.8899 -6.047621,5.48066 -8.504468,3.77976 -2.456844,-1.70087 -7.9375,-12.09523 -7.9375,-14.1741 0,-2.07887 -0.188986,-6.99256 0.566965,-8.69345 0.755952,-1.70089 3.212799,-4.34672 3.590774,-7.18155 0.377976,-2.83482 -1.133927,-13.22916 0,-16.25297 1.133928,-3.02381 12.284229,-7.55953 12.284229,-7.55953 z"
         id="path888"
         inkscape:connector-curvature="0" />
    </clipPath>
    <clipPath
       clipPathUnits="userSpaceOnUse"
       id="clipPath907">
      <path
         style="fill:#000000;fill-opacity:1;stroke:none;stroke-width:0.26458332px;stroke-linecap:butt;stroke-linejoin:miter;stroke-opacity:1"
         d="m -15.686012,214.22321 c 0,0 4.913691,1.70089 4.157738,3.59078 -0.755952,1.88988 -0.94494,5.66964 -2.834821,7.9375 -1.889881,2.26785 -11.339286,4.15773 -11.339286,4.15773 0,0 2.834822,11.33929 3.02381,14.74107 0.188988,3.40179 2.267857,20.22173 3.779762,22.11162 1.511904,1.88984 6.614583,7.9375 11.150298,1.51191 4.5357139,-6.42561 6.614583,-14.36311 6.047618,-16.44198 -0.566964,-2.07887 -4.3467261,-7.37054 -4.3467261,-10.77233 0,-3.40178 3.2127981,-8.88243 2.834822,-12.66219 -0.3779768,-3.77976 -0.7559529,-6.23661 -1.700893,-7.37054 -0.94494,-1.13393 -4.1577379,-4.15774 -5.1026789,-4.53571 -0.94494,-0.37798 -5.669643,-2.26786 -5.669643,-2.26786 z"
         id="path909"
         inkscape:connector-curvature="0" />
    </clipPath>
    <clipPath
       clipPathUnits="userSpaceOnUse"
       id="clipPath935">
      <path
         inkscape:connector-curvature="0"
         id="path937"
         d="m -61.204721,112.04948 c 0,0 -2.405428,5.87994 -2.939965,9.62171 -0.534541,3.74177 -1.870888,16.57071 -1.870888,21.64883 0,5.07812 -0.267269,17.63979 1.603619,22.71791 1.870884,5.07812 10.690783,24.32153 13.898017,29.93419 3.207232,5.61266 13.363475,25.39061 14.432553,26.99422 1.069078,1.60363 4.276312,6.1472 8.285358,5.3454 4.009041,-0.80181 13.898012,-11.22533 13.096203,-12.82894 -0.801809,-1.60363 -2.672694,-18.17434 -2.672694,-18.17434 0,0 -20.847023,-26.72695 -20.847023,-28.59784 0,-1.87088 10.423514,-34.47776 10.958049,-37.15046 0.53454,-2.6727 -0.534535,-17.37252 -3.474503,-19.2434 -2.939965,-1.87089 -30.468726,-0.26728 -30.468726,-0.26728 z"
         style="fill:#3a3a3a;fill-opacity:1;stroke:none;stroke-width:0.26458332px;stroke-linecap:butt;stroke-linejoin:miter;stroke-opacity:1" />
    </clipPath>
    <clipPath
       clipPathUnits="userSpaceOnUse"
       id="clipPath939">
      <path
         inkscape:connector-curvature="0"
         id="path941"
         d="m -61.204721,112.04948 c 0,0 -2.405428,5.87994 -2.939965,9.62171 -0.534541,3.74177 -1.870888,16.57071 -1.870888,21.64883 0,5.07812 -0.267269,17.63979 1.603619,22.71791 1.870884,5.07812 10.690783,24.32153 13.898017,29.93419 3.207232,5.61266 13.363475,25.39061 14.432553,26.99422 1.069078,1.60363 4.276312,6.1472 8.285358,5.3454 4.009041,-0.80181 13.898012,-11.22533 13.096203,-12.82894 -0.801809,-1.60363 -2.672694,-18.17434 -2.672694,-18.17434 0,0 -20.847023,-26.72695 -20.847023,-28.59784 0,-1.87088 10.423514,-34.47776 10.958049,-37.15046 0.53454,-2.6727 -0.534535,-17.37252 -3.474503,-19.2434 -2.939965,-1.87089 -30.468726,-0.26728 -30.468726,-0.26728 z"
         style="fill:#3a3a3a;fill-opacity:1;stroke:none;stroke-width:0.26458332px;stroke-linecap:butt;stroke-linejoin:miter;stroke-opacity:1" />
    </clipPath>
    <clipPath
       clipPathUnits="userSpaceOnUse"
       id="clipPath983">
      <path
         sodipodi:nodetypes="ccsscccssscc"
         inkscape:connector-curvature="0"
         id="path985"
         d="m -30.468726,112.04948 33.9432293,-0.26726 c 0,0 5.6126618,31.00327 5.6126618,35.27958 0,4.27632 -0.5345411,14.43256 -1.3363469,17.90706 -0.8018089,3.47449 -13.630746,33.94323 -15.7689021,37.15045 -2.1381591,3.20725 -17.9070601,26.99423 -21.1142951,27.79604 -3.207234,0.8018 -10.15624,-4.81086 -10.690781,-7.21628 -0.534538,-2.40543 -1.870887,-7.21628 1.069078,-11.75985 2.939966,-4.54359 13.096208,-30.736 15.501634,-34.74505 2.405425,-4.00903 6.681737,-13.36346 6.147198,-17.10524 -0.534539,-3.74177 -12.376892,-28.77643 -12.376892,-28.77643 z"
         style="fill:#3a3a3a;fill-opacity:1;stroke:none;stroke-width:0.26458332px;stroke-linecap:butt;stroke-linejoin:miter;stroke-opacity:1" />
    </clipPath>
    <clipPath
       clipPathUnits="userSpaceOnUse"
       id="clipPath987">
      <path
         sodipodi:nodetypes="ccsscccssscc"
         inkscape:connector-curvature="0"
         id="path989"
         d="m -30.468726,112.04948 33.9432293,-0.26726 c 0,0 5.6126618,31.00327 5.6126618,35.27958 0,4.27632 -0.5345411,14.43256 -1.3363469,17.90706 -0.8018089,3.47449 -13.630746,33.94323 -15.7689021,37.15045 -2.1381591,3.20725 -17.9070601,26.99423 -21.1142951,27.79604 -3.207234,0.8018 -10.15624,-4.81086 -10.690781,-7.21628 -0.534538,-2.40543 -1.870887,-7.21628 1.069078,-11.75985 2.939966,-4.54359 13.096208,-30.736 15.501634,-34.74505 2.405425,-4.00903 6.681737,-13.36346 6.147198,-17.10524 -0.534539,-3.74177 -12.376892,-28.77643 -12.376892,-28.77643 z"
         style="fill:#3a3a3a;fill-opacity:1;stroke:none;stroke-width:0.26458332px;stroke-linecap:butt;stroke-linejoin:miter;stroke-opacity:1" />
    </clipPath>
    <clipPath
       clipPathUnits="userSpaceOnUse"
       id="clipPath1043">
      <path
         style="opacity:1;fill:#efefef;fill-opacity:1;stroke:none;stroke-width:0.26458332px;stroke-linecap:butt;stroke-linejoin:miter;stroke-opacity:1"
         d="m -42.786057,18.062999 c 0,0 -11.492589,1.737252 -13.898014,2.672697 -2.405425,0.935442 -8.55263,1.603616 -10.824419,3.875408 -2.27179,2.27179 -8.418989,9.488068 -10.156241,10.824415 -1.737249,1.336347 -4.677209,2.939965 -5.879928,3.608141 -1.202711,0.668171 -5.078121,4.009044 -5.078121,4.81085 0,0.801807 2.271789,4.543584 3.87541,6.013567 1.603621,1.469982 4.944491,3.474503 6.013561,3.608136 1.069078,0.133633 6.414469,-0.133633 8.01809,-1.737252 1.603618,-1.603618 7.34991,-7.216277 9.488067,-6.147199 2.138156,1.069078 4.944485,3.608141 4.944485,5.479026 0,1.870887 0.935443,15.234364 0.668174,16.83798 -0.267269,1.603616 -3.207235,17.639792 -3.474503,21.11429 -0.267269,3.474503 -6.051553,24.358842 -5.517015,25.294282 0.534537,0.93545 17.332621,7.7971 35.124363,5.22283 17.791745,-2.57426 32.9756431,-5.52741 35.113799,-5.66104 C 3.8955509,106.46945 3.6343331,106.21789 2.917031,100.64929 2.199733,95.080696 1.249429,81.241109 1.046147,71.383274 c 0,-1.202714 1.7372509,1.870884 2.5390609,2.806329 0.801806,0.93544 10.0226021,0.534538 11.7598621,0 1.73725,-0.53454 8.41898,-1.870887 8.55262,-2.539063 0.13364,-0.668171 -1.33635,-7.483544 -1.73725,-8.285353 C 21.75953,62.563378 19.97803,55.838582 18.41867,52.540768 16.8593,49.242959 18.69332,35.081922 14.81053,32.228287 12.93964,31.159209 9.999676,29.555588 9.331502,28.219241 4.4253499,21.571404 -2.530425,19.94908 -10.045538,16.459384 c -1.737252,-0.801809 -5.479027,-1.603619 -5.479027,-1.603619 l -13.229841,-0.534537 z"
         id="path1045"
         inkscape:connector-curvature="0"
         sodipodi:nodetypes="ccsssscscssssczczcccsszcccccc" />
    </clipPath>
    <clipPath
       clipPathUnits="userSpaceOnUse"
       id="clipPath1047">
      <path
         style="opacity:1;fill:#efefef;fill-opacity:1;stroke:none;stroke-width:0.26458332px;stroke-linecap:butt;stroke-linejoin:miter;stroke-opacity:1"
         d="m -42.786057,18.062999 c 0,0 -11.492589,1.737252 -13.898014,2.672697 -2.405425,0.935442 -8.55263,1.603616 -10.824419,3.875408 -2.27179,2.27179 -8.418989,9.488068 -10.156241,10.824415 -1.737249,1.336347 -4.677209,2.939965 -5.879928,3.608141 -1.202711,0.668171 -5.078121,4.009044 -5.078121,4.81085 0,0.801807 2.271789,4.543584 3.87541,6.013567 1.603621,1.469982 4.944491,3.474503 6.013561,3.608136 1.069078,0.133633 6.414469,-0.133633 8.01809,-1.737252 1.603618,-1.603618 7.34991,-7.216277 9.488067,-6.147199 2.138156,1.069078 4.944485,3.608141 4.944485,5.479026 0,1.870887 0.935443,15.234364 0.668174,16.83798 -0.267269,1.603616 -3.207235,17.639792 -3.474503,21.11429 -0.267269,3.474503 -6.051553,24.358842 -5.517015,25.294282 0.534537,0.93545 17.332621,7.7971 35.124363,5.22283 17.791745,-2.57426 32.9756431,-5.52741 35.113799,-5.66104 C 3.8955509,106.46945 3.6343331,106.21789 2.917031,100.64929 2.199733,95.080696 1.249429,81.241109 1.046147,71.383274 c 0,-1.202714 1.7372509,1.870884 2.5390609,2.806329 0.801806,0.93544 10.0226021,0.534538 11.7598621,0 1.73725,-0.53454 8.41898,-1.870887 8.55262,-2.539063 0.13364,-0.668171 -1.33635,-7.483544 -1.73725,-8.285353 C 21.75953,62.563378 19.97803,55.838582 18.41867,52.540768 16.8593,49.242959 18.69332,35.081922 14.81053,32.228287 12.93964,31.159209 9.999676,29.555588 9.331502,28.219241 4.4253499,21.571404 -2.530425,19.94908 -10.045538,16.459384 c -1.737252,-0.801809 -5.479027,-1.603619 -5.479027,-1.603619 l -13.229841,-0.534537 z"
         id="path1049"
         inkscape:connector-curvature="0"
         sodipodi:nodetypes="ccsssscscssssczczcccsszcccccc" />
    </clipPath>
    <clipPath
       clipPathUnits="userSpaceOnUse"
       id="clipPath1093">
      <path
         style="fill:#7a3617;fill-opacity:1;stroke:none;stroke-width:0.26458332px;stroke-linecap:butt;stroke-linejoin:miter;stroke-opacity:1"
         d="M 94.991391,13.519418 C 94.456853,11.514897 93.521408,3.8977147 95.7932,-1.9822143 c 2.271792,-5.8799295 8.28535,-9.0871637 10.42351,-9.6217037 2.13816,-0.534539 12.02713,-1.737252 17.90706,3.8754081 5.87993,5.6126602 4.94448,16.1698065 4.40995,20.4461199 -0.53454,4.276312 0.8018,1.336347 1.87088,1.737251 1.06908,0.400905 1.73725,3.741775 0.53454,8.418992 -1.20271,4.677217 -4.00905,5.078119 -4.00905,5.078119 l -1.33634,-1.336347 c 0,0 -0.53455,3.073602 -0.93544,5.211758 -0.40091,2.138156 -2.27179,5.479026 -3.60814,6.949006 -1.33636,1.469985 -7.34991,5.078124 -8.68626,6.013564 -1.33635,0.935442 -5.07812,1.069078 -6.5481,0.53454 -1.46999,-0.53454 -3.34087,-2.672694 -4.27632,-4.276312 -0.93544,-1.603616 -2.93996,-6.147197 -4.009038,-7.617183 -1.069078,-1.46998 -1.336347,-2.53906 -1.737252,-3.875407 -0.400904,-1.336347 -0.668173,-3.875409 -0.668173,-3.875409 0,0 -0.400905,1.069079 -1.202714,0.267269 -0.801809,-0.801809 -0.935442,-3.073598 -1.202711,-4.142676 -0.267272,-1.069078 -0.267272,-5.746295 -0.267272,-6.1472 0,-0.400904 -0.133633,-2.271792 0.668174,-2.539061 0.801809,-0.26727 1.870887,0.400904 1.870887,0.400904 z"
         id="path1095"
         inkscape:connector-curvature="0" />
    </clipPath>
    <clipPath
       clipPathUnits="userSpaceOnUse"
       id="clipPath1128">
      <path
         style="opacity:1;vector-effect:none;fill:#ffb600;fill-opacity:1;stroke:none;stroke-width:1.06500006;stroke-linecap:round;stroke-linejoin:round;stroke-miterlimit:4;stroke-dasharray:none;stroke-dashoffset:0;stroke-opacity:1;paint-order:markers stroke fill"
         d="m 142.30646,115.68225 c -10.83728,1.57285 -37.0046,8.96278 -67.316598,1.36831 -30.31199,-7.59447 -54.017019,-27.479587 -45.826241,-29.715496 8.190783,-2.235915 39.103914,1.834038 70.131027,9.233299 31.027122,7.399257 51.162942,15.503297 45.681102,18.385227"
         id="path1130"
         inkscape:connector-curvature="0"
         sodipodi:nodetypes="csssc" />
    </clipPath>
  </defs>
  <sodipodi:namedview
     id="base"
     pagecolor="#ffffff"
     bordercolor="#666666"
     borderopacity="1.0"
     inkscape:pageopacity="0.0"
     inkscape:pageshadow="2"
     inkscape:zoom="0.35"
     inkscape:cx="-361.85288"
     inkscape:cy="295.53985"
     inkscape:document-units="mm"
     inkscape:current-layer="layer1"
     showgrid="false"
     inkscape:snap-nodes="false"
     inkscape:lockguides="true"
     inkscape:window-width="1920"
     inkscape:window-height="1001"
     inkscape:window-x="-9"
     inkscape:window-y="-9"
     inkscape:window-maximized="1" />
  <metadata
     id="metadata5">
    <rdf:RDF>
      <cc:Work
         rdf:about="">
        <dc:format>image/svg+xml</dc:format>
        <dc:type
           rdf:resource="http://purl.org/dc/dcmitype/StillImage" />
        <dc:title />
      </cc:Work>
    </rdf:RDF>
  </metadata>
  <g
     inkscape:label="Calque 1"
     inkscape:groupmode="layer"
     id="layer1"
     transform="translate(-7.5301079,-31.660711)">
    <rect
       style="opacity:1;vector-effect:none;fill:#f6f6f6;fill-opacity:1;stroke:none;stroke-width:0.71874267;stroke-linecap:round;stroke-linejoin:round;stroke-miterlimit:4;stroke-dasharray:none;stroke-dashoffset:0;stroke-opacity:1;paint-order:markers stroke fill"
       id="rect1137"
       width="193.27444"
       height="75.10392"
       x="-85.010963"
       y="140.45593"
       rx="5.1026745"
       ry="19.465771"
       transform="rotate(-32.610779)"
       inkscape:export-xdpi="90"
       inkscape:export-ydpi="90" />
    <path
       style="fill:none;stroke:#000000;stroke-width:1.01781726;stroke-linecap:round;stroke-linejoin:miter;stroke-miterlimit:4;stroke-dasharray:4.07126858, 4.07126858;stroke-dashoffset:0;stroke-opacity:1"
       d="M 9.5538146,148.68825 206.85111,140.47014"
       id="path1209"
       inkscape:connector-curvature="0"
       inkscape:export-xdpi="90"
       inkscape:export-ydpi="90" />
    <g
       id="g1248"
       transform="matrix(0.69475574,0,0,0.69475574,29.159516,42.226791)"
       inkscape:export-xdpi="90"
       inkscape:export-ydpi="90">
      <path
         inkscape:connector-curvature="0"
         id="path849"
         d="m 51.548289,63.788343 c 0,0 -5.211758,2.405425 -6.548098,3.340869 -1.33635,0.935443 -3.0736,1.870885 -3.0736,2.939963 0,1.069078 0,4.810853 2.80633,5.746295 2.806328,0.935445 7.884446,1.33635 9.354429,1.202714 1.469983,-0.133636 8.68626,-5.078122 8.68626,-5.078122 z"
         style="opacity:1;fill:#652d13;fill-opacity:1;stroke:none;stroke-width:0.26458332px;stroke-linecap:butt;stroke-linejoin:miter;stroke-opacity:1" />
      <g
         transform="translate(139.51469,19.777945)"
         id="g1022">
        <path
           style="fill:#ffb600;fill-opacity:1;stroke:none;stroke-width:0.26458332px;stroke-linecap:butt;stroke-linejoin:miter;stroke-opacity:1"
           d="m -26.326048,222.96634 c 0,0 2.80633,6.1472 3.340869,7.34991 0.534539,1.20271 4.677217,4.54358 7.216277,2.80633 2.539061,-1.73725 6.815373,-7.75082 6.815373,-8.28535 0,-0.53455 -2.271791,-8.01809 -2.271791,-8.01809 0,0 -3.207234,0.53454 -5.211756,-1.20272 -2.004521,-1.73725 -9.888972,7.34992 -9.888972,7.34992 z"
           id="path861"
           inkscape:connector-curvature="0" />
        <path
           style="fill:#ffb600;fill-opacity:1;stroke:none;stroke-width:0.26458332px;stroke-linecap:butt;stroke-linejoin:miter;stroke-opacity:1"
           d="m -39.6875,219.70387 c 0,0 -5.291666,3.77976 -5.858631,6.2366 -0.566963,2.45685 2.456847,12.85119 4.724704,13.04018 2.267855,0.18899 8.504463,0.66146 8.504463,0.66146 0,0 2.834822,-6.3311 3.212798,-8.03199 0.377976,-1.7009 2.456844,-7.9375 2.456844,-7.9375 l -12.284226,-4.15774 z"
           id="path863"
           inkscape:connector-curvature="0"
           sodipodi:nodetypes="ccsccccc" />
        <g
           id="g993">
          <path
             sodipodi:nodetypes="cszssccssssc"
             inkscape:connector-curvature="0"
             id="path865"
             d="m -40.348956,220.12909 c 0,0 -4.252234,7.32329 -3.118304,10.15811 1.133927,2.83482 14.167161,4.87073 14.552083,5.85863 0.384922,0.9879 -3.779763,5.29167 -4.535715,8.12649 -0.755952,2.83482 -2.834823,3.2128 -3.779763,8.50446 -0.944939,5.29167 -1.700893,15.30805 -3.401785,17.19791 -1.700893,1.88989 -6.047619,5.48066 -8.504465,3.77976 -2.456844,-1.70087 -7.9375,-12.09523 -7.9375,-14.1741 0,-2.07887 -0.188987,-6.99256 0.566965,-8.69345 0.755951,-1.70089 3.212798,-4.34672 3.590774,-7.18155 0.377976,-2.83482 -1.133927,-13.22916 0,-16.25297 1.133927,-3.02381 12.56771,-7.32329 12.56771,-7.32329 z"
             style="fill:#000000;fill-opacity:1;stroke:none;stroke-width:0.26458332px;stroke-linecap:butt;stroke-linejoin:miter;stroke-opacity:1" />
          <path
             clip-path="url(#clipPath886)"
             inkscape:connector-curvature="0"
             id="path869"
             d="m -50.246671,263.99221 c 0,0 2.138156,-2.13815 5.879931,-1.87089 3.741771,0.26727 6.949006,4.27631 6.949006,4.27631 l -5.746295,10.69078 -22.450639,-10.4235 2.405425,-17.37252 6.68174,-14.69983 -0.534541,-19.2434 8.819896,2.80633 c 0,0 -1.202714,6.949 -1.33635,8.68626 -0.133633,1.73725 -0.534537,5.47902 -0.534537,7.88445 0,2.40542 1.069078,8.01808 0.534537,9.88897 -0.534537,1.87089 -3.073598,5.34539 -3.340867,8.68626 -0.267271,3.34087 -0.133635,7.34991 0.400902,8.55263 0.534541,1.20271 2.271792,2.13815 2.271792,2.13815 z"
             style="fill:#ffffff;fill-opacity:1;stroke:none;stroke-width:0.26458332px;stroke-linecap:butt;stroke-linejoin:miter;stroke-opacity:1" />
        </g>
        <g
           id="g997">
          <path
             sodipodi:nodetypes="czczsccsssszc"
             inkscape:connector-curvature="0"
             id="path867"
             d="m -15.071801,216.49107 c 0,0 1.187091,-0.0975 1.889881,2.12612 0.702791,2.22361 0.708706,4.86644 -1.181175,7.1343 -1.889881,2.26785 -11.075841,3.4829 -11.339286,4.15773 -0.263445,0.67483 2.834822,11.33929 3.02381,14.74107 0.188988,3.40179 2.267857,20.22173 3.779762,22.11162 1.511904,1.88986 6.614583,7.9375 11.1502973,1.51191 4.5357142,-6.42561 6.6145831,-14.36311 6.0476189,-16.44198 -0.5669643,-2.07887 -4.3467262,-7.37053 -4.3467262,-10.77232 0,-3.40179 3.2127975,-8.88244 2.8348215,-12.6622 -0.3779764,-3.77976 -0.7559524,-6.23661 -1.700893,-7.37054 -0.9449403,-1.13393 -3.7086426,-3.59068 -5.2444195,-4.15773 -1.535777,-0.56706 -4.913691,-0.37798 -4.913691,-0.37798 z"
             style="fill:#000000;fill-opacity:1;stroke:none;stroke-width:0.26458332px;stroke-linecap:butt;stroke-linejoin:miter;stroke-opacity:1" />
          <path
             clip-path="url(#clipPath907)"
             inkscape:connector-curvature="0"
             id="path890"
             d="m -18.976136,267.33309 c 0,0 -0.133635,-6.01358 3.741773,-7.61719 3.875408,-1.60362 6.815373,-0.93545 8.1517207,-2.27179 1.3363475,-1.33635 2.1381561,-5.87993 2.1381561,-7.61718 0,-1.73726 -1.4699824,-6.81538 -1.603617,-8.01809 -0.133635,-1.20271 -0.6290332,-7.36612 -0.039141,-9.45842 0.5898923,-2.09231 0.3226231,-7.40527 0.1889881,-9.67706 -0.1336347,-2.27179 -2.0207339,-7.45784 -2.0207339,-7.45784 l 8.95352905,2.6727 -2.13815625,15.23436 1.46998244,12.56167 2.13815616,10.15624 -8.2853553,20.57974 -12.6953021,-0.80179 z"
             style="fill:#ffffff;fill-opacity:1;stroke:none;stroke-width:0.26458332px;stroke-linecap:butt;stroke-linejoin:miter;stroke-opacity:1"
             sodipodi:nodetypes="cccsszscccccccc" />
        </g>
        <g
           id="g1005">
          <path
             sodipodi:nodetypes="cssssssscsscc"
             inkscape:connector-curvature="0"
             id="path857"
             d="m -61.20472,112.04948 c 0,0 -2.405428,5.87994 -2.939966,9.62171 -0.53454,3.74177 -1.870887,16.57071 -1.870887,21.64883 0,5.07812 -0.267269,17.63979 1.603619,22.71791 1.870884,5.07812 10.69078,24.32153 13.898014,29.93419 3.207234,5.61266 13.363477,25.3906 14.432555,26.99422 1.069078,1.60362 4.276312,6.1472 8.285356,5.34539 4.009041,-0.80181 13.898014,-11.22532 13.096205,-12.82894 -0.801809,-1.60362 -2.672695,-18.17433 -2.672695,-18.17433 0,0 -20.847022,-26.72695 -20.847022,-28.59784 0,-1.87088 10.690781,-34.74505 11.225318,-37.41774 0.534541,-2.6727 1.737254,-18.8425 -3.474503,-19.2434 -4.409947,0.26727 -30.735994,0 -30.735994,0 z"
             style="fill:#3a3a3a;fill-opacity:1;stroke:none;stroke-width:0.26458332px;stroke-linecap:butt;stroke-linejoin:miter;stroke-opacity:1" />
          <path
             clip-path="url(#clipPath939)"
             inkscape:connector-curvature="0"
             id="path911"
             d="m -38.553572,166.22024 c 0,0 -1.511903,20.78869 -4.913688,31.75 -3.401788,10.9613 -6.803573,18.8988 -6.803573,18.8988 l 30.616071,18.89881 17.7648811,-34.39583 z"
             style="fill:#2d2d2d;fill-opacity:1;stroke:none;stroke-width:0.26458332px;stroke-linecap:butt;stroke-linejoin:miter;stroke-opacity:1" />
          <path
             clip-path="url(#clipPath935)"
             inkscape:connector-curvature="0"
             id="path932"
             d="m -32.205977,128.08566 c 0,0 -1.737252,11.22532 -3.207234,18.04069 -1.469983,6.81537 -1.202714,18.04069 -1.202714,18.04069 l 12.962572,-34.07686 c 0,0 -2.004521,-2.53906 -4.276312,-2.80633 -2.271792,-0.26727 -4.276312,0.80181 -4.276312,0.80181 z"
             style="fill:#2d2d2d;fill-opacity:1;stroke:none;stroke-width:0.26458332px;stroke-linecap:butt;stroke-linejoin:miter;stroke-opacity:1" />
          <path
             sodipodi:nodetypes="ccsscccssscc"
             inkscape:connector-curvature="0"
             id="path859"
             d="m -30.468726,112.04948 33.9432298,-0.26726 c 0,0 5.61266,31.00326 5.61266,35.27957 0,4.27632 -0.5345391,14.43256 -1.3363475,17.90706 -0.8018087,3.4745 -13.6307458,33.94323 -15.7689019,37.15046 -2.1381564,3.20724 -17.9070584,26.99423 -21.1142934,27.79604 -3.207234,0.8018 -10.15624,-4.81086 -10.69078,-7.21628 -0.534538,-2.40543 -1.870888,-7.21628 1.069078,-11.75986 2.939965,-4.54358 13.096207,-30.736 15.501633,-34.74504 2.405425,-4.00904 6.681737,-13.36347 6.147198,-17.10525 -0.534539,-3.74177 -12.376892,-28.77642 -12.376892,-28.77642 z"
             style="fill:#3a3a3a;fill-opacity:1;stroke:none;stroke-width:0.26458332px;stroke-linecap:butt;stroke-linejoin:miter;stroke-opacity:1" />
          <path
             clip-path="url(#clipPath987)"
             inkscape:connector-curvature="0"
             id="path943"
             d="m -29.482142,127.85565 c 2.078868,-0.56696 5.480654,-0.56696 8.315476,7.74851 2.834821,8.31548 3.96875,24.00149 3.590773,24.75744 -0.377976,0.75596 -12.473214,-21.73362 -12.662201,-24.56845 -0.188989,-2.83482 0.755952,-7.9375 0.755952,-7.9375 z"
             style="fill:#2d2d2d;fill-opacity:1;stroke:none;stroke-width:0.26458332px;stroke-linecap:butt;stroke-linejoin:miter;stroke-opacity:1" />
          <path
             sodipodi:nodetypes="cssssc"
             clip-path="url(#clipPath983)"
             inkscape:connector-curvature="0"
             id="path965"
             d="m 9.6383926,165.08631 c -3.2127975,0.56696 -11.5282737,2.26786 -15.1190474,0.94494 -3.5907738,-1.32292 -4.3467261,16.06399 -4.9136902,24.00149 -0.566964,7.9375 -13.796131,29.29315 -15.119048,35.15178 -1.322917,5.85863 32.1279762,-29.29315 32.6949405,-38.36458 0.5669642,-9.07143 2.4568451,-21.73363 2.4568451,-21.73363 z"
             style="fill:#2d2d2d;fill-opacity:1;stroke:none;stroke-width:0.26458332px;stroke-linecap:butt;stroke-linejoin:miter;stroke-opacity:1" />
        </g>
      </g>
      <path
         sodipodi:nodetypes="czzscscssssczczccccccccc"
         inkscape:connector-curvature="0"
         id="path845"
         d="m 97.797719,39.548553 c -7.575922,1.888403 -18.339966,3.343548 -25.319038,7.297341 -6.979073,3.953794 -11.547282,7.540956 -16.508642,11.219758 -4.96136,3.678801 -5.078121,4.764995 -5.078121,5.566801 0,0.80181 2.271792,4.543584 3.875407,6.013567 1.603619,1.469982 4.944489,3.474503 6.013567,3.608138 1.069078,0.133634 6.414468,-0.133635 8.018084,-1.737254 1.603618,-1.603615 7.349913,-7.216274 9.488069,-6.147196 2.138156,1.069078 4.944486,3.608138 4.944486,5.479023 0,1.870887 0.935442,15.234364 0.668173,16.83798 -0.267269,1.603618 -3.207234,17.639789 -3.474503,21.114289 -0.267269,3.4745 -6.051555,24.35885 -5.517014,25.29429 0.534537,0.93545 17.332621,7.7971 35.124363,5.22283 17.79174,-2.57426 32.97564,-5.52741 35.1138,-5.66104 -1.7361,-7.40968 -1.99732,-7.66124 -2.71462,-13.22984 -0.7173,-5.5686 -1.6676,-19.40818 -1.87089,-29.266024 0,-1.202713 1.73726,1.870885 2.53906,2.80633 0.80181,0.935442 10.02261,0.534538 11.75986,0 1.73725,-0.53454 8.41899,-1.870887 8.55263,-2.539061 -3.76291,-12.237929 -5.78662,-28.969924 -12.39446,-37.626867 -4.10809,-4.707788 -11.75398,-9.833277 -19.23169,-13.250802 -1.73725,-0.801809 -12.52532,-1.932958 -12.52532,-1.932958 l -8.31164,1.670675 c 0,0 -8.44059,-1.009908 -13.151561,-0.73998 z"
         style="opacity:1;fill:#f6f6f6;fill-opacity:1;stroke:none;stroke-width:0.26458332px;stroke-linecap:butt;stroke-linejoin:miter;stroke-opacity:1" />
      <path
         sodipodi:nodetypes="cccccccccc"
         inkscape:connector-curvature="0"
         id="path847"
         d="m 100.93277,39.82533 -3.496279,2.456847 c -1.323337,-2.151658 1.373371,3.554804 2.267858,4.866444 l 7.370531,1.889882 11.24479,1.41741 5.24442,-3.496281 0.0472,-6.472841 -3.77894,-1.086105 -6.66265,-1.795964 z"
         style="fill:#c5c5c5;fill-opacity:1;stroke:none;stroke-width:0.26458332px;stroke-linecap:butt;stroke-linejoin:miter;stroke-opacity:1" />
      <path
         inkscape:connector-curvature="0"
         id="path839"
         d="m 101.27222,38.509118 c 0,0 0.66818,4.276315 0.26727,5.479026 -0.4009,1.202714 -2.138153,4.142679 -2.138153,4.142679 l 0.668173,4.009041 c 0,0 3.87541,5.211757 9.35443,5.345393 5.47903,0.133633 11.49259,-6.815373 11.49259,-6.815373 l 1.33635,-5.345393 c 0,0 -0.93544,-1.737252 -1.20271,-3.875408 -0.26727,-2.138156 -1.20271,-6.147199 -1.20271,-6.147199 0,0 -7.88445,-2.004521 -18.57524,3.207234 z"
         style="opacity:1;fill:#652d13;fill-opacity:1;stroke:none;stroke-width:0.26458332px;stroke-linecap:butt;stroke-linejoin:miter;stroke-opacity:1" />
      <path
         sodipodi:nodetypes="ccssccszcccc"
         inkscape:connector-curvature="0"
         id="path841"
         d="m 101.66167,43.043694 c -0.33294,2.441941 -1.07482,2.332387 -1.32489,5.220762 -0.17443,2.014725 2.40543,7.216278 7.48355,6.949009 5.07812,-0.267269 11.75986,-6.1472 12.82893,-8.552625 1.06908,-2.405427 0.3675,-5.195052 0.3675,-5.195052 l 6.48563,1.322425 c 0,0 5.20006,6.529191 -0.30502,12.157983 0,0 -5.34494,6.050364 -11.8935,12.160763 -6.54855,6.110399 -14.03165,1.336347 -14.03165,1.336347 L 88.977826,55.079829 93.502414,44.72117 c 0,0 5.891794,-3.11901 8.159256,-1.677476 z"
         style="opacity:1;fill:#ffb600;fill-opacity:1;stroke:none;stroke-width:0.26458332px;stroke-linecap:butt;stroke-linejoin:miter;stroke-opacity:1" />
      <path
         sodipodi:nodetypes="csccczcczzzzszcsscsszcc"
         inkscape:connector-curvature="0"
         id="path843"
         d="m 101.64209,40.808011 c 0,0 -2.82254,1.152684 -3.223442,4.627187 -0.400905,3.474506 0.534537,4.276311 0.935442,6.147199 1.53394,5.838781 5.57226,18.42886 8.68626,18.708868 3.63533,-2.914732 11.69757,-10.775702 13.0962,-15.768902 0.13364,-0.668174 1.76837,-10.090462 1.60362,-12.561668 -0.16475,-2.471206 -3.51918,-2.828977 -1.77196,-3.334142 6.82055,-0.161189 13.26239,8.425463 13.93269,11.619498 1.46999,7.884451 0.65303,13.656135 0.40091,16.704344 -0.25213,3.048209 -2.97239,-3.888839 -4.67722,-6.1472 -1.70482,-2.258361 -2.9346,-2.712709 -5.34539,-1.737251 -2.41079,0.975458 -3.51364,7.222994 -4.58272,8.158438 -1.06908,0.935444 -5.37503,3.154661 -8.18137,4.758277 -2.80633,1.603618 -5.79657,1.620156 -7.19335,2.441787 -1.39677,0.821631 1.38221,-2.529566 1.38221,-2.529566 0,0 -7.483546,-1.737251 -10.156239,-2.539058 -2.672697,-0.801809 -6.013564,-2.939965 -6.815373,-5.87993 -0.801809,-2.939966 -0.935445,-4.543581 -1.603619,-4.142679 -0.668173,0.400904 -8.418988,4.276314 -8.151719,3.608138 0.267268,-0.668173 5.211754,-8.285353 6.815373,-10.289876 1.603615,-2.00452 4.271418,-5.19865 6.144416,-7.816817 1.872998,-2.618166 4.756901,-3.578596 7.908191,-5.803041 z"
         style="fill:#ffffff;fill-opacity:1;stroke:none;stroke-width:0.26458332px;stroke-linecap:butt;stroke-linejoin:miter;stroke-opacity:1" />
      <path
         inkscape:connector-curvature="0"
         id="path851"
         d="m 49.543769,70.336447 c 0,0 -4.810848,-5.078122 -9.087168,-3.073601 -4.276308,2.004523 -5.479018,5.746294 -5.479018,8.285355 0,2.539061 1.87088,7.617182 1.87088,7.617182 l 6.414468,-4.543583 4.009046,-5.879928 z"
         style="opacity:1;fill:#6b3014;fill-opacity:1;stroke:none;stroke-width:0.26458332px;stroke-linecap:butt;stroke-linejoin:miter;stroke-opacity:1" />
      <path
         transform="translate(139.51469,19.777945)"
         clip-path="url(#clipPath1047)"
         inkscape:connector-curvature="0"
         id="path1024"
         d="m -5.4790252,78.50716 c 0,0 3.7417733,-10.022607 4.2763123,-17.105248 0.53453908,-7.082645 0.53453908,-0.935445 2.6726953,4.677216 2.1381561,5.612659 5.6126599,12.428032 5.6126599,12.428032 z"
         style="fill:#dbdbdb;fill-opacity:1;stroke:none;stroke-width:0.26458332px;stroke-linecap:butt;stroke-linejoin:miter;stroke-opacity:1" />
      <path
         sodipodi:nodetypes="cscsc"
         inkscape:connector-curvature="0"
         id="path1055"
         d="m 49.060076,83.050742 c 0,0 27.929665,15.234362 30.602361,15.234362 2.672694,0 40.758603,-5.61266 38.620443,-7.216275 -2.13815,-1.603619 -40.224061,-10.824417 -42.362217,-10.824417 -2.138157,0 -26.860587,2.80633 -26.860587,2.80633 z"
         style="fill:#ffb600;fill-opacity:1;stroke:#ffb600;stroke-width:1.36500001;stroke-linecap:round;stroke-linejoin:round;stroke-miterlimit:4;stroke-dasharray:none;stroke-opacity:1" />
      <path
         sodipodi:nodetypes="csssscscscssssscscsccc"
         inkscape:connector-curvature="0"
         id="path855"
         d="m 158.88943,92.923502 c 0,0 2.64027,10.019828 1.17029,13.761598 -1.46998,3.74178 -4.14268,7.08264 -10.02261,5.7463 -5.87993,-1.33635 -37.01683,-13.89802 -37.685,-13.89802 -0.66818,0 -4.40995,4.00904 -8.95353,3.87541 -4.543585,-0.13364 -12.027131,-4.142678 -12.027131,-4.142678 0,0 -0.668174,-1.469983 0,-1.870888 0.668173,-0.400904 3.34087,0 3.34087,0 0,0 1.069078,-0.400904 2.672696,-0.400904 1.603616,0 5.078115,-0.267269 5.078115,-0.267269 0,0 -1.06907,0 1.06908,-1.870887 2.13816,-1.870888 4.81085,-2.80633 4.67722,-4.009044 -0.13363,-1.202713 -0.26727,-2.806329 -1.60362,-2.806329 -1.33634,0 -3.0736,1.336347 -4.40994,0.668173 -1.33635,-0.668173 -2.40543,-1.603616 -2.40543,-2.53906 0,-0.935443 4.27631,-2.672694 5.34539,-3.207235 1.06908,-0.534537 3.4745,-2.53906 4.40995,-2.405425 0.93544,0.133634 4.40994,2.939966 5.34539,3.741772 0.93544,0.801809 8.68626,6.013567 11.75986,7.082645 3.0736,1.069078 10.69078,4.142676 12.42803,4.276312 1.73725,0.133633 4.34788,0.101209 4.61515,-0.433331 8.63064,0.377243 10.72309,-0.212639 15.19522,-1.30114 z"
         style="fill:#6b3014;fill-opacity:1;stroke:none;stroke-width:0.26458332px;stroke-linecap:butt;stroke-linejoin:miter;stroke-opacity:1" />
      <path
         transform="translate(139.51469,19.777945)"
         sodipodi:nodetypes="csscc"
         clip-path="url(#clipPath1043)"
         inkscape:connector-curvature="0"
         id="path1026"
         d="m -78.577241,54.319267 c 0,0 5.61266,-4.944485 10.022607,-8.418988 4.409948,-3.474503 11.22532,-3.081454 11.22532,1.469981 2e-6,8.418992 -14.967091,11.225319 -15.501632,11.358955 -0.534537,0.133636 -5.746295,-4.409948 -5.746295,-4.409948 z"
         style="fill:#dbdbdb;fill-opacity:1;stroke:none;stroke-width:0.26458332px;stroke-linecap:butt;stroke-linejoin:miter;stroke-opacity:1" />
      <path
         inkscape:connector-curvature="0"
         id="path853"
         d="m 60.034099,83.49947 c -0.467723,-0.400905 -2.204974,-2.672697 -2.539061,-3.207234 -0.334087,-0.534541 -3.808593,-7.14946 -4.34313,-7.550364 -0.534541,-0.400905 -4.34313,-3.140417 -8.151717,-2.138157 -3.8086,1.002261 -6.548108,4.744035 -6.815378,5.61266 -0.26727,0.868627 -1.80407,5.87993 -1.67043,6.414468 0.13363,0.53454 0.33408,2.204974 0.20045,2.739514 -0.13363,0.534538 1.60362,1.670434 1.73725,2.472243 0.13364,0.801807 -0.4009,2.138156 0.93545,2.605876 1.336338,0.467722 7.216268,2.405428 7.683993,2.405428 0.467723,0 2.739512,-1.737252 3.474503,-2.405428 0.734991,-0.668174 4.009044,-2.204971 5.078122,-2.672694 1.069078,-0.467722 2.271791,-1.202714 2.271791,-1.603618 0,-0.400905 -3.140419,-2.271789 -3.741774,-2.271789 -0.601356,0 -2.873148,-1.80407 -3.875408,-2.271792 -1.00226,-0.467723 -2.605878,-1.00226 -3.407687,-2.271792 -0.801812,-1.269529 -0.801812,-3.207234 -0.801812,-3.207234 0,0 3.474508,1.603618 4.209499,2.472243 0.734992,0.868627 1.670434,2.204973 2.271792,2.873147 0.601356,0.668176 3.875408,2.271792 4.744032,2.672696 0.868627,0.400905 2.80633,1.870888 3.140419,0.668174 0.334087,-1.202714 -0.400904,-1.336347 -0.400904,-1.336347 z"
         style="fill:#7a3617;fill-opacity:1;stroke:none;stroke-width:0.26458332px;stroke-linecap:butt;stroke-linejoin:miter;stroke-opacity:1" />
      <path
         inkscape:connector-curvature="0"
         id="path1057"
         d="m 52.117559,82.583021 c 0,0 -3.674956,0.133633 -3.34087,0.400905 0.334087,0.267269 8.68626,4.610399 8.68626,4.610399 l 3.073599,-1.33635 -5.211755,-2.53906 z"
         style="fill:#ffb600;fill-opacity:1;stroke:#ffb600;stroke-width:1.06500006;stroke-linecap:butt;stroke-linejoin:round;stroke-miterlimit:4;stroke-dasharray:none;stroke-opacity:1" />
      <path
         sodipodi:nodetypes="ccccc"
         inkscape:connector-curvature="0"
         id="path1059"
         d="m 102.16378,95.345141 c 0,0 14.03165,-2.739513 14.633,-3.073599 0.60136,-0.334087 -9.52147,-4.6104 -9.52147,-4.6104 l -5.04472,3.741773 z"
         style="fill:#ffb600;fill-opacity:1;stroke:#ffb600;stroke-width:0.76499999;stroke-linecap:butt;stroke-linejoin:round;stroke-miterlimit:4;stroke-dasharray:none;stroke-opacity:1" />
      <g
         id="g1099">
        <path
           style="fill:#7a3617;fill-opacity:1;stroke:none;stroke-width:0.26458332px;stroke-linecap:butt;stroke-linejoin:miter;stroke-opacity:1"
           d="m 94.991389,13.519418 c -0.534537,-2.004521 -1.469982,-9.621703 0.801809,-15.501632 2.271792,-5.879929 8.285352,-9.087163 10.423512,-9.621703 2.13816,-0.534539 12.02713,-1.737252 17.90706,3.875408 5.87993,5.61266 4.94448,16.169806 4.40995,20.446119 -0.53454,4.276313 0.8018,1.336347 1.87088,1.737252 1.06908,0.400904 1.73725,3.741773 0.53454,8.41899 -1.20271,4.677217 -4.00904,5.078121 -4.00904,5.078121 l -1.33635,-1.336348 c 0,0 -0.53454,3.0736 -0.93544,5.211756 -0.40091,2.138156 -2.27179,5.479026 -3.60814,6.949008 -1.33635,1.469983 -7.34991,5.078122 -8.68626,6.013564 -1.33635,0.935442 -5.07812,1.069078 -6.5481,0.534538 -1.46999,-0.534538 -3.34087,-2.672694 -4.27632,-4.276312 -0.93544,-1.603616 -2.939962,-6.147197 -4.00904,-7.61718 -1.069078,-1.469982 -1.336347,-2.539061 -1.737252,-3.875409 -0.400904,-1.336347 -0.668173,-3.875408 -0.668173,-3.875408 0,0 -0.400905,1.069078 -1.202714,0.26727 -0.801809,-0.801809 -0.935442,-3.0736 -1.202711,-4.142678 -0.267271,-1.069078 -0.267271,-5.746295 -0.267271,-6.147199 0,-0.400905 -0.133634,-2.271792 0.668173,-2.539061 0.801809,-0.26727 1.870887,0.400904 1.870887,0.400904 z"
           id="path837"
           inkscape:connector-curvature="0" />
        <path
           style="fill:#230f07;fill-opacity:1;stroke:none;stroke-width:0.26458332px;stroke-linecap:butt;stroke-linejoin:miter;stroke-opacity:1"
           d="m 92.793154,13.517856 c 0,0 2.234954,1.141507 4.022807,-3.155447 1.778291,-4.2739734 6.436029,-10.41783144 13.005109,-10.61103969 12.85119,-0.37797619 16.51747,7.34089209 17.7459,10.55368969 2.36235,4.630208 4.06324,1.417411 4.06324,1.417411 L 130.77976,-7.5543158 112.16443,-19.55506 93.076635,-8.3102682 Z"
           id="path1076"
           inkscape:connector-curvature="0"
           clip-path="url(#clipPath1093)"
           sodipodi:nodetypes="csscccccc" />
      </g>
      <path
         sodipodi:nodetypes="zsssssz"
         inkscape:connector-curvature="0"
         id="rect1101"
         d="m 87.729742,0.43196663 c 1.540524,0.0618598 2.122856,2.97371077 2.02299,5.79882787 L 89.218199,21.35233 c -0.05893,1.667094 0.241532,1.583907 -1.34051,0.647177 -0.405411,-0.240045 -0.515583,0.03402 -0.595635,-0.946768 L 86.081213,6.3401587 C 85.851247,3.5226464 86.189218,0.37010684 87.729742,0.43196663 Z"
         style="opacity:1;vector-effect:none;fill:#230f07;fill-opacity:1;stroke:none;stroke-width:1.16499996;stroke-linecap:round;stroke-linejoin:bevel;stroke-miterlimit:2.29999995;stroke-dasharray:27.95999964, 27.95999964;stroke-dashoffset:0;stroke-opacity:1;paint-order:markers stroke fill"
         transform="rotate(45.265658)" />
    </g>
    <path
       style="opacity:1;vector-effect:none;fill:#f3f3f3;fill-opacity:1;stroke:none;stroke-width:0.73991489;stroke-linecap:round;stroke-linejoin:round;stroke-miterlimit:4;stroke-dasharray:none;stroke-dashoffset:0;stroke-opacity:1;paint-order:markers stroke fill"
       id="path1139"
       sodipodi:type="arc"
       sodipodi:cx="34.41156"
       sodipodi:cy="74.727303"
       sodipodi:rx="17.856876"
       sodipodi:ry="17.856876"
       sodipodi:start="0.32175145"
       sodipodi:end="0.14707837"
       sodipodi:open="true"
       d="M 51.352075,80.374158 A 17.856876,17.856876 0 0 1 29.509616,91.898178 17.856876,17.856876 0 0 1 17.043062,70.579616 17.856876,17.856876 0 0 1 37.797082,57.194297 17.856876,17.856876 0 0 1 52.075644,77.344204"
       inkscape:export-xdpi="90"
       inkscape:export-ydpi="90" />
    <path
       style="opacity:1;vector-effect:none;fill:#f6f6f6;fill-opacity:1;stroke:none;stroke-width:0.73991489;stroke-linecap:round;stroke-linejoin:round;stroke-miterlimit:4;stroke-dasharray:none;stroke-dashoffset:0;stroke-opacity:1;paint-order:markers stroke fill"
       id="path1141"
       sodipodi:type="arc"
       sodipodi:cx="160.98529"
       sodipodi:cy="40.589149"
       sodipodi:rx="8.9284382"
       sodipodi:ry="8.9284382"
       sodipodi:start="0.32175145"
       sodipodi:end="0.14707837"
       sodipodi:open="true"
       d="m 169.45555,43.412577 a 8.9284382,8.9284382 0 0 1 -10.92123,5.76201 8.9284382,8.9284382 0 0 1 -6.23328,-10.659281 8.9284382,8.9284382 0 0 1 10.37701,-6.692659 8.9284382,8.9284382 0 0 1 7.13928,10.074953"
       inkscape:export-xdpi="90"
       inkscape:export-ydpi="90" />
    <path
       style="opacity:1;vector-effect:none;fill:#ffb600;fill-opacity:1;stroke:none;stroke-width:0.73991489;stroke-linecap:round;stroke-linejoin:round;stroke-miterlimit:4;stroke-dasharray:none;stroke-dashoffset:0;stroke-opacity:1;paint-order:markers stroke fill"
       id="path1141-1"
       sodipodi:type="arc"
       sodipodi:cx="180.6617"
       sodipodi:cy="90.685455"
       sodipodi:rx="8.9284382"
       sodipodi:ry="8.9284382"
       sodipodi:start="0.32175145"
       sodipodi:end="0.14707837"
       sodipodi:open="true"
       d="m 189.13196,93.508883 a 8.9284382,8.9284382 0 0 1 -10.92123,5.76201 8.9284382,8.9284382 0 0 1 -6.23328,-10.659281 8.9284382,8.9284382 0 0 1 10.37701,-6.692659 8.9284382,8.9284382 0 0 1 7.13928,10.074953"
       inkscape:export-xdpi="90"
       inkscape:export-ydpi="90" />
    <path
       style="opacity:1;vector-effect:none;fill:#ffb600;fill-opacity:1;stroke:none;stroke-width:0.50053066;stroke-linecap:round;stroke-linejoin:round;stroke-miterlimit:4;stroke-dasharray:none;stroke-dashoffset:0;stroke-opacity:1;paint-order:markers stroke fill"
       id="path1139-6"
       sodipodi:type="arc"
       sodipodi:cx="60.146465"
       sodipodi:cy="196.56329"
       sodipodi:rx="12.079653"
       sodipodi:ry="12.079653"
       sodipodi:start="0.32175145"
       sodipodi:end="0.14707837"
       sodipodi:open="true"
       d="m 71.606227,200.38323 a 12.079653,12.079653 0 0 1 -14.775783,7.79566 12.079653,12.079653 0 0 1 -8.433258,-14.42139 12.079653,12.079653 0 0 1 14.039485,-9.05477 12.079653,12.079653 0 0 1 9.659029,13.63082"
       inkscape:export-xdpi="90"
       inkscape:export-ydpi="90" />
    <path
       style="opacity:1;vector-effect:none;fill:none;fill-opacity:1;stroke:#000000;stroke-width:0.84499604;stroke-linecap:round;stroke-linejoin:round;stroke-miterlimit:4;stroke-dasharray:none;stroke-dashoffset:0;stroke-opacity:1;paint-order:markers stroke fill"
       id="path1139-6-3"
       sodipodi:type="arc"
       sodipodi:cx="51.743156"
       sodipodi:cy="185.53403"
       sodipodi:rx="9.0690536"
       sodipodi:ry="9.0690536"
       sodipodi:start="0.32175145"
       sodipodi:end="0.14707837"
       sodipodi:open="true"
       d="m 60.346814,188.40192 a 9.0690536,9.0690536 0 0 1 -11.09323,5.85276 9.0690536,9.0690536 0 0 1 -6.331446,-10.82716 9.0690536,9.0690536 0 0 1 10.540439,-6.79806 9.0690536,9.0690536 0 0 1 7.251719,10.23362"
       inkscape:export-xdpi="90"
       inkscape:export-ydpi="90" />
    <path
       style="opacity:1;vector-effect:none;fill:none;fill-opacity:1;stroke:#000000;stroke-width:0.84499604;stroke-linecap:round;stroke-linejoin:round;stroke-miterlimit:4;stroke-dasharray:none;stroke-dashoffset:0;stroke-opacity:1;paint-order:markers stroke fill"
       id="path1139-6-3-4"
       sodipodi:type="arc"
       sodipodi:cx="64.348305"
       sodipodi:cy="54.244308"
       sodipodi:rx="9.0690536"
       sodipodi:ry="9.0690536"
       sodipodi:start="0.32175145"
       sodipodi:end="0.14707837"
       sodipodi:open="true"
       d="M 72.951962,57.112203 A 9.0690536,9.0690536 0 0 1 61.858732,62.96496 9.0690536,9.0690536 0 0 1 55.527286,52.137804 9.0690536,9.0690536 0 0 1 66.067725,45.339741 9.0690536,9.0690536 0 0 1 73.319444,55.573366"
       inkscape:export-xdpi="90"
       inkscape:export-ydpi="90" />
    <path
       style="opacity:1;vector-effect:none;fill:none;fill-opacity:1;stroke:#000000;stroke-width:0.56448787;stroke-linecap:round;stroke-linejoin:round;stroke-miterlimit:4;stroke-dasharray:none;stroke-dashoffset:0;stroke-opacity:1;paint-order:markers stroke fill"
       id="path1139-6-3-1"
       sodipodi:type="arc"
       sodipodi:cx="180.76743"
       sodipodi:cy="115.61378"
       sodipodi:rx="6.058455"
       sodipodi:ry="6.058455"
       sodipodi:start="0.32175145"
       sodipodi:end="0.14707837"
       sodipodi:open="true"
       d="m 186.51498,117.52963 a 6.058455,6.058455 0 0 1 -7.41068,3.90986 6.058455,6.058455 0 0 1 -4.22963,-7.23293 6.058455,6.058455 0 0 1 7.04139,-4.54136 6.058455,6.058455 0 0 1 4.84441,6.83644"
       inkscape:export-xdpi="90"
       inkscape:export-ydpi="90" />
  </g>
</svg>
